<?xml version="1.0" encoding="UTF-8" standalone="no"?>
<svg
   width="119.1pt"
   height="137.52pt"
   viewBox="0 0 119.1 137.52"
   version="1.1"
   id="svg101"
   sodipodi:docname="logo.svg"
   inkscape:version="1.4.3 (0d15f75042, 2025-12-25)"
   xml:space="preserve"
   inkscape:export-filename="logo.png"
   inkscape:export-xdpi="300"
   inkscape:export-ydpi="300"
   xmlns:inkscape="http://www.inkscape.org/namespaces/inkscape"
   xmlns:sodipodi="http://sodipodi.sourceforge.net/DTD/sodipodi-0.dtd"
   xmlns="http://www.w3.org/2000/svg"
   xmlns:svg="http://www.w3.org/2000/svg"><defs
     id="defs101"><inkscape:path-effect
       effect="bspline"
       id="path-effect143"
       is_visible="true"
       lpeversion="1.3"
       weight="33.333333"
       steps="2"
       helper_size="0"
       apply_no_weight="true"
       apply_with_weight="true"
       only_selected="false"
       uniform="false" /><inkscape:path-effect
       effect="bspline"
       id="path-effect142"
       is_visible="true"
       lpeversion="1.3"
       weight="33.333333"
       steps="2"
       helper_size="0"
       apply_no_weight="true"
       apply_with_weight="true"
       only_selected="false"
       uniform="false" /><inkscape:path-effect
       effect="bspline"
       id="path-effect141"
       is_visible="true"
       lpeversion="1.3"
       weight="33.333333"
       steps="2"
       helper_size="0"
       apply_no_weight="true"
       apply_with_weight="true"
       only_selected="false"
       uniform="false" /><inkscape:path-effect
       effect="bspline"
       id="path-effect140"
       is_visible="true"
       lpeversion="1.3"
       weight="33.333333"
       steps="2"
       helper_size="0"
       apply_no_weight="true"
       apply_with_weight="true"
       only_selected="false"
       uniform="false" /><inkscape:path-effect
       effect="bspline"
       id="path-effect139"
       is_visible="true"
       lpeversion="1.3"
       weight="33.333333"
       steps="2"
       helper_size="0"
       apply_no_weight="true"
       apply_with_weight="true"
       only_selected="false"
       uniform="false" /><inkscape:path-effect
       effect="bspline"
       id="path-effect138"
       is_visible="true"
       lpeversion="1.3"
       weight="33.333333"
       steps="2"
       helper_size="0"
       apply_no_weight="true"
       apply_with_weight="true"
       only_selected="false"
       uniform="false" /><inkscape:path-effect
       effect="spiro"
       id="path-effect137"
       is_visible="true"
       lpeversion="1" /><inkscape:path-effect
       effect="bspline"
       id="path-effect134"
       is_visible="true"
       lpeversion="1.3"
       weight="33.333333"
       steps="2"
       helper_size="0"
       apply_no_weight="true"
       apply_with_weight="true"
       only_selected="false"
       uniform="false" /><clipPath
       clipPathUnits="userSpaceOnUse"
       id="clipPath101"><rect
         x="0"
         y="0"
         width="124.38"
         height="144"
         id="rect102"
         style="stroke-width:0.999998" /></clipPath><clipPath
       clipPathUnits="userSpaceOnUse"
       id="clipPath103"><rect
         x="2.1716657"
         y="156.61786"
         width="92.830002"
         height="15.3"
         id="rect104"
         style="stroke-width:0.999998" /></clipPath><clipPath
       clipPathUnits="userSpaceOnUse"
       id="clipPath104"><rect
         x="2.1716657"
         y="156.61786"
         width="92.830002"
         height="15.3"
         id="rect105"
         style="stroke-width:0.999998" /></clipPath><clipPath
       clipPathUnits="userSpaceOnUse"
       id="clipPath105"><rect
         x="14.36"
         y="82.980003"
         width="92.830002"
         height="15.3"
         id="rect106"
         style="stroke-width:0.999998" /></clipPath><clipPath
       clipPathUnits="userSpaceOnUse"
       id="clipPath106"><rect
         x="14.36"
         y="82.980003"
         width="92.830002"
         height="15.3"
         id="rect107"
         style="stroke-width:0.999998" /></clipPath><clipPath
       clipPathUnits="userSpaceOnUse"
       id="clipPath107"><rect
         x="14.36"
         y="82.980003"
         width="92.830002"
         height="15.3"
         id="rect108"
         style="stroke-width:0.999998" /></clipPath><clipPath
       clipPathUnits="userSpaceOnUse"
       id="clipPath108"><rect
         x="14.36"
         y="82.980003"
         width="92.830002"
         height="15.3"
         id="rect109"
         style="stroke-width:0.999998" /></clipPath><clipPath
       clipPathUnits="userSpaceOnUse"
       id="clipPath109"><rect
         x="14.36"
         y="82.980003"
         width="92.830002"
         height="15.3"
         id="rect110"
         style="stroke-width:0.999998" /></clipPath><clipPath
       clipPathUnits="userSpaceOnUse"
       id="clipPath110"><rect
         x="14.36"
         y="82.980003"
         width="92.830002"
         height="15.3"
         id="rect111"
         style="stroke-width:0.999998" /></clipPath><clipPath
       clipPathUnits="userSpaceOnUse"
       id="clipPath111"><rect
         x="14.36"
         y="82.980003"
         width="92.830002"
         height="15.3"
         id="rect112"
         style="stroke-width:0.999998" /></clipPath><clipPath
       clipPathUnits="userSpaceOnUse"
       id="clipPath112"><rect
         x="14.36"
         y="82.980003"
         width="92.830002"
         height="15.3"
         id="rect113"
         style="stroke-width:0.999998" /></clipPath><clipPath
       clipPathUnits="userSpaceOnUse"
       id="clipPath113"><rect
         x="14.36"
         y="82.980003"
         width="92.830002"
         height="15.3"
         id="rect114"
         style="stroke-width:0.999998" /></clipPath><clipPath
       clipPathUnits="userSpaceOnUse"
       id="clipPath114"><rect
         x="14.36"
         y="82.980003"
         width="92.830002"
         height="15.3"
         id="rect115"
         style="stroke-width:0.999998" /></clipPath><clipPath
       clipPathUnits="userSpaceOnUse"
       id="clipPath115"><rect
         x="14.36"
         y="82.980003"
         width="92.830002"
         height="15.3"
         id="rect116"
         style="stroke-width:0.999998" /></clipPath><clipPath
       clipPathUnits="userSpaceOnUse"
       id="clipPath116"><rect
         x="14.36"
         y="82.980003"
         width="92.830002"
         height="15.3"
         id="rect117"
         style="stroke-width:0.999998" /></clipPath><clipPath
       clipPathUnits="userSpaceOnUse"
       id="clipPath117"><rect
         x="14.36"
         y="82.980003"
         width="92.830002"
         height="15.3"
         id="rect118"
         style="stroke-width:0.999998" /></clipPath><clipPath
       clipPathUnits="userSpaceOnUse"
       id="clipPath118"><rect
         x="14.36"
         y="82.980003"
         width="92.830002"
         height="15.3"
         id="rect119"
         style="stroke-width:0.999998" /></clipPath><clipPath
       clipPathUnits="userSpaceOnUse"
       id="clipPath119"><rect
         x="14.36"
         y="82.980003"
         width="92.830002"
         height="15.3"
         id="rect120"
         style="stroke-width:0.999998" /></clipPath><clipPath
       clipPathUnits="userSpaceOnUse"
       id="clipPath120"><rect
         x="14.36"
         y="82.980003"
         width="92.830002"
         height="15.3"
         id="rect121"
         style="stroke-width:0.999998" /></clipPath><clipPath
       clipPathUnits="userSpaceOnUse"
       id="clipPath121"><rect
         x="14.36"
         y="82.980003"
         width="92.830002"
         height="15.3"
         id="rect122"
         style="stroke-width:0.999998" /></clipPath><clipPath
       clipPathUnits="userSpaceOnUse"
       id="clipPath122"><rect
         x="14.36"
         y="82.980003"
         width="92.830002"
         height="15.3"
         id="rect123"
         style="stroke-width:0.999998" /></clipPath><clipPath
       clipPathUnits="userSpaceOnUse"
       id="clipPath123"><rect
         x="14.36"
         y="82.980003"
         width="92.830002"
         height="15.3"
         id="rect124"
         style="stroke-width:0.999998" /></clipPath><defs
       id="defs1"><style
         type="text/css"
         id="style1"><![CDATA[.svglite line, .svglite polyline, .svglite polygon, .svglite path, .svglite rect, .svglite circle { fill: none;      stroke: #000000;      stroke-linecap: round;      stroke-linejoin: round;      stroke-miterlimit: 10.00; }
.svglite text { white-space: pre; }
.svglite g.glyphgroup path { fill: inherit;      stroke: none; }
]]></style></defs><defs
       id="defs2"><clipPath
         id="cpMC4wMHwxMjQuNDR8MC4wMHwxNDQuMDA="><rect
           x="0"
           y="0"
           width="124.44"
           height="144"
           id="rect2" /></clipPath></defs><defs
       id="defs3"><clipPath
         id="cpMC4wNnwxMjQuMzh8MC4wMHwxNDQuMDA="><rect
           x="0.059999999"
           y="0"
           width="124.32"
           height="144"
           id="rect3" /></clipPath></defs><defs
       id="defs5"><clipPath
         id="cpMC4wMHwxMjQuMzh8MC4wMHwxNDQuMDA="><rect
           x="0"
           y="0"
           width="124.38"
           height="144"
           id="rect5" /></clipPath></defs><defs
       id="defs7"><clipPath
         id="cpMTQuMzZ8MTA3LjIwfDgyLjk4fDk4LjI4"><rect
           x="14.36"
           y="82.980003"
           width="92.830002"
           height="15.3"
           id="rect7" /></clipPath></defs></defs><sodipodi:namedview
     id="namedview101"
     pagecolor="#ffffff"
     bordercolor="#000000"
     borderopacity="0.25"
     inkscape:showpageshadow="2"
     inkscape:pageopacity="0.0"
     inkscape:pagecheckerboard="0"
     inkscape:deskcolor="#d1d1d1"
     inkscape:document-units="pt"
     showgrid="false"
     inkscape:zoom="3.1328125"
     inkscape:cx="131.03242"
     inkscape:cy="110.12469"
     inkscape:window-width="1687"
     inkscape:window-height="1407"
     inkscape:window-x="1750"
     inkscape:window-y="0"
     inkscape:window-maximized="0"
     inkscape:current-layer="svg101"
     inkscape:export-bgcolor="#ffffff00" /><polygon
     points="60.78,142.2 120.33,107.82 120.33,39.06 60.78,4.68 1.23,39.06 1.23,107.82 "
     style="fill:#ccc5c1;stroke:#000000;stroke-width:1.76;stroke-linecap:butt;stroke-dasharray:none;stroke-opacity:1"
     id="polygon6"
     transform="translate(-1.23,-4.68)" /><path
     d="m 24.56601,34.200437 v 0 l 0.02085,-0.208548 0.01043,-0.208549 0.02086,-0.218975 0.02085,-0.218976 0.01043,-0.229403 0.02086,-0.229404 0.02086,-0.229403 0.01043,-0.23983 0.02086,-0.229404 0.02085,-0.250258 v 0 l 0.01043,-0.23983 0.02086,-0.250258 0.02086,-0.250258 0.03128,-0.250259 0.02085,-0.23983 0.03128,-0.250258 0.02086,-0.239831 0.03128,-0.250258 0.03128,-0.239831 0.04171,-0.250258 v 0 l 0.04171,-0.23983 0.04171,-0.239831 0.04171,-0.239831 0.04171,-0.229403 0.05214,-0.23983 0.05214,-0.229404 0.05214,-0.229403 0.05214,-0.218976 0.05214,-0.229403 0.06256,-0.218976 v 0 l 0.06256,-0.218975 0.07299,-0.208549 0.07299,-0.208548 0.07299,-0.198121 0.08342,-0.198121 0.07299,-0.198121 0.09385,-0.187694 0.08342,-0.177266 0.09385,-0.177266 0.104275,-0.166839 v 0 l 0.104274,-0.166838 0.114701,-0.166839 0.114702,-0.156411 0.114702,-0.145984 0.125129,-0.135557 0.135556,-0.135556 0.135557,-0.125129 0.135556,-0.114702 0.145984,-0.114701 0.145984,-0.104274 v 0 l 0.156411,-0.09385 0.156411,-0.09385 0.166839,-0.07299 0.177266,-0.06256 0.177266,-0.06256 0.187694,-0.04171 0.187693,-0.03128 0.198121,-0.02086 0.208549,-0.01043 h 0.208548 v 0 l 0.135556,0.01043 0.135557,0.01043 0.135556,0.03128 0.114702,0.04171 0.114702,0.06256 0.104274,0.06256 0.104274,0.08342 0.09385,0.08342 0.08342,0.104275 0.08342,0.114701 v 0 l 0.07299,0.125129 0.07299,0.135557 0.07299,0.135556 0.06256,0.135557 0.05214,0.145983 0.05214,0.145984 0.05214,0.156412 0.04171,0.166838 0.03128,0.166839 0.03128,0.166839 v 0 l 0.03128,0.177266 0.03128,0.177266 0.03128,0.177266 0.02085,0.177266 0.02085,0.177266 0.01043,0.177266 0.01043,0.177267 0.01043,0.187693 0.01043,0.187694 v 0.177266 0 l 0.01043,0.177266 v 0.177266 0.156411 l 0.01043,0.156412 v 0.156411 0.145984 l 0.01043,0.135556 v 0.135557 0.125129 0.114701 0 h -0.114702 l -0.114702,-0.02086 -0.104274,-0.02085 -0.104274,-0.04171 -0.09385,-0.04171 -0.09385,-0.05214 -0.09385,-0.06256 -0.08342,-0.07299 -0.08342,-0.08342 -0.07299,-0.09385 v 0 l -0.07299,-0.104275 -0.07299,-0.114701 -0.06256,-0.104274 -0.06256,-0.114702 -0.06256,-0.125129 -0.05214,-0.114702 -0.05214,-0.125129 -0.05214,-0.125129 -0.04171,-0.125129 -0.05214,-0.135556 v 0 l -0.03128,-0.135557 -0.04171,-0.135556 -0.03128,-0.125129 -0.03128,-0.135557 -0.03128,-0.125129 -0.03128,-0.135556 -0.02086,-0.125129 -0.03128,-0.135557 -0.02086,-0.125129 -0.01043,-0.125129 -0.09385,-0.844621 v 0 0 h -0.01043 -0.01043 -0.01043 -0.01043 -0.01043 -0.01043 -0.02086 -0.01043 -0.02085 v 0 h -0.01043 l -0.01043,-0.01043 h -0.01043 l -0.01043,-0.01043 h -0.01043 v 0 h -0.01043 -0.01043 v 0 l -0.01043,-0.01043 v 0 l -0.09385,0.01043 -0.104274,0.02085 -0.09385,0.02086 -0.09385,0.04171 -0.09385,0.05214 -0.09385,0.05214 -0.08342,0.07299 -0.09385,0.08342 -0.09385,0.09385 -0.08342,0.104274 v 0 l -0.08342,0.114702 -0.07299,0.125129 -0.08342,0.125129 -0.08342,0.125129 -0.07299,0.145984 -0.08342,0.145984 -0.07299,0.145984 -0.07299,0.156411 -0.08342,0.166839 -0.07299,0.166838 v 0 l -0.07299,0.177267 -0.06257,0.177266 -0.06256,0.177266 -0.06256,0.177266 -0.06256,0.198121 -0.06256,0.187693 -0.06256,0.198121 -0.05214,0.208549 -0.05214,0.198121 -0.05214,0.218975 v 0 l -0.05214,0.208549 -0.05214,0.208548 -0.05214,0.208549 -0.04171,0.198121 -0.04171,0.208548 -0.04171,0.208548 -0.04171,0.198121 -0.04171,0.208549 -0.04171,0.208548 -0.03128,0.198121 v 0 l -0.03128,0.198121 -0.03128,0.198121 -0.04171,0.198121 -0.02086,0.198121 -0.03128,0.187693 -0.03128,0.187694 -0.03128,0.177266 -0.02085,0.187694 -0.03128,0.177266 -0.02086,0.177266 v 0 l -0.01043,0.156411 -0.02086,0.156411 -0.01043,0.156412 -0.01043,0.135556 -0.01043,0.135557 -0.01043,0.125129 v 0.125129 l -0.01043,0.114701 v 0.09385 0.104274 0 l -0.01043,0.145984 -0.01043,0.156411 -0.01043,0.156412 v 0.166838 0.156412 0.166838 0.177266 l 0.01043,0.166839 0.01043,0.177266 0.01043,0.177266 v 0 l 0.01043,0.177267 0.02086,0.177266 0.02085,0.177266 0.03128,0.166839 0.03128,0.166838 0.04171,0.166839 0.04171,0.166839 0.04171,0.166838 0.05214,0.156412 0.05214,0.156411 v 0 l 0.06256,0.156411 0.06256,0.156411 0.07299,0.145984 0.07299,0.135557 0.08342,0.135556 0.08342,0.135557 0.08342,0.135556 0.09385,0.125129 0.09385,0.125129 0.104274,0.114702 v 0 l 0.104275,0.104274 0.114701,0.104274 0.125129,0.09385 0.125129,0.08342 0.135557,0.07299 0.145984,0.07299 0.145983,0.06256 0.156412,0.06256 0.166838,0.05214 0.166839,0.04171 v 0 h 0.218976 l 0.198121,-0.01043 0.198121,-0.01043 0.177266,-0.02085 0.177266,-0.03128 0.177266,-0.03128 0.156411,-0.03128 0.156412,-0.05214 0.145984,-0.04171 0.135556,-0.06256 v 0 l 0.135557,-0.05214 0.125129,-0.07299 0.114701,-0.06256 0.114702,-0.07299 0.114701,-0.07299 0.104275,-0.08342 0.09385,-0.08342 0.09385,-0.09385 0.09385,-0.08342 0.08342,-0.104274 v 0 l 0.08342,-0.09385 0.08342,-0.104274 0.07299,-0.104274 0.07299,-0.104275 0.07299,-0.114701 0.06256,-0.104274 0.06256,-0.114702 0.05214,-0.114702 0.05214,-0.125129 0.05214,-0.114701 v 0 l 0.04171,-0.125129 0.05214,-0.125129 0.04171,-0.125129 0.04171,-0.114702 0.04171,-0.125129 0.04171,-0.125129 0.05214,-0.125129 0.04171,-0.125129 0.04171,-0.135556 0.03128,-0.125129 v 0 l 0.05214,-0.135557 0.04171,-0.125129 0.05214,-0.135556 0.04171,-0.125129 0.05214,-0.135557 0.04171,-0.125129 0.05214,-0.135556 0.04171,-0.125129 0.04171,-0.135557 0.05214,-0.125129 v 0 l 0.05214,-0.125129 0.05214,-0.125129 0.05214,-0.125129 0.06256,-0.114702 0.06256,-0.125129 0.07299,-0.114701 0.07299,-0.114702 0.07299,-0.114701 0.08342,-0.114702 0.08342,-0.114702 v 0 l 0.06256,-0.01043 0.06256,-0.01043 0.06256,-0.01043 h 0.05214 0.05214 0.05214 l 0.04171,0.01043 0.04171,0.01043 0.03128,0.02085 0.03128,0.02086 v 0 l 0.03128,0.02085 0.03128,0.02085 0.03128,0.02085 0.03128,0.02086 0.02085,0.02085 0.02086,0.03128 0.02085,0.03128 0.02085,0.03128 0.01043,0.03128 0.01043,0.03128 v 0 l 0.01043,0.03128 0.01043,0.04171 0.01043,0.04171 0.01043,0.03128 v 0.04171 l 0.01043,0.04171 v 0.04171 l 0.01043,0.04171 v 0.05214 0.04171 0.32325 0 l -0.01043,0.239831 -0.01043,0.239831 -0.02085,0.23983 -0.02085,0.239831 -0.04171,0.229403 -0.04171,0.239831 -0.05214,0.229403 -0.06256,0.229403 -0.07299,0.229404 -0.07299,0.229403 v 0 l -0.08342,0.218976 -0.09385,0.218975 -0.104274,0.218976 -0.104275,0.208548 -0.114701,0.198121 -0.125129,0.208549 -0.125129,0.187693 -0.135557,0.198121 -0.145983,0.187694 -0.156412,0.177266 v 0 l -0.156411,0.166839 -0.166839,0.166838 -0.177266,0.156412 -0.177266,0.156411 -0.187694,0.145984 -0.187693,0.135556 -0.198121,0.135557 -0.208548,0.125129 -0.208549,0.114701 -0.218976,0.114702 v 0 l -0.208548,0.104274 -0.229403,0.08342 -0.229403,0.08342 -0.239831,0.06256 -0.239831,0.06257 -0.250258,0.04171 -0.250258,0.04171 -0.271113,0.02085 -0.260685,0.02085 h -0.28154 v 0 h -0.229404 l -0.218976,-0.03128 -0.208548,-0.03128 -0.208548,-0.05214 -0.198121,-0.06256 -0.187694,-0.08342 -0.187693,-0.09385 -0.166839,-0.104274 -0.177266,-0.12513 -0.156411,-0.135556 v 0 L 26.359526,39.987655 26.213542,39.831243 26.077985,39.664405 25.952856,39.497566 25.827727,39.3203 25.713026,39.132606 25.608752,38.944913 25.504477,38.746792 25.410631,38.548671 25.316784,38.35055 v 0 l -0.07299,-0.218976 -0.08342,-0.208548 -0.06256,-0.208549 -0.06256,-0.218975 -0.06256,-0.218976 -0.06256,-0.218976 -0.04171,-0.218976 -0.05214,-0.218976 -0.04171,-0.218975 -0.03128,-0.229404 v 0 l -0.04171,-0.229403 -0.02086,-0.218976 -0.03128,-0.218975 -0.02085,-0.198121 -0.02086,-0.208549 -0.01043,-0.187693 -0.02086,-0.187694 v -0.177266 l -0.01043,-0.177266 z"
     style="fill:#011f27;fill-rule:nonzero;stroke:none;stroke-width:0.782056"
     id="path88" /><path
     d="m 36.76609,39.393292 v 0 l 0.03128,-0.28154 0.04171,-0.281541 0.03128,-0.302395 0.03128,-0.312822 0.03128,-0.32325 0.02085,-0.344105 0.02086,-0.354533 0.02085,-0.364959 0.01043,-0.375387 0.02085,-0.396242 v 0 l 0.01043,-0.40667 0.02085,-0.406669 0.01043,-0.406669 0.01043,-0.417097 v -0.427524 l 0.01043,-0.427524 V 33.126413 32.688461 32.25051 L 37.0789,31.802131 v 0 -0.458807 -0.458806 -0.458806 L 37.06847,29.966905 37.05804,29.497671 37.04761,29.028437 37.03718,28.559204 37.02675,28.08997 37.0059,27.610308 36.99547,27.130647 v 0 L 36.97462,26.650986 36.95376,26.181752 36.93291,25.712518 36.91206,25.253712 36.89121,24.794905 36.87035,24.336099 36.8495,23.898147 36.81822,23.449768 36.78694,23.011817 36.76609,22.584292 v 0 L 36.73481,22.156768 36.70353,21.729244 36.67225,21.322575 36.64097,20.915905 36.59926,20.530091 36.56798,20.144276 36.5367,19.768889 36.49499,19.40393 36.45328,19.049397 36.41157,18.705293 v 0 L 36.38029,18.371615 36.34901,18.048365 36.3073,17.74597 36.27602,17.454002 36.23431,17.172462 36.1926,16.911776 36.16132,16.661518 36.11961,16.432115 36.0779,16.213139 36.03619,16.004591 v 0 l 0.05214,-0.03128 0.05214,-0.03128 0.04171,-0.03128 0.05214,-0.03128 0.04171,-0.02086 0.04171,-0.03128 0.04171,-0.02086 0.04171,-0.02086 0.03128,-0.02086 0.04171,-0.02085 v 0 l 0.04171,-0.02085 0.04171,-0.02086 0.04171,-0.01043 0.04171,-0.02085 0.05214,-0.01043 0.04171,-0.01043 0.05214,-0.01043 h 0.05214 l 0.04171,-0.01043 h 0.05214 v 0 h 0.04171 0.04171 l 0.04171,0.01043 h 0.03128 l 0.03128,0.01043 0.04171,0.01043 0.03128,0.01043 0.03128,0.01043 0.03128,0.02086 0.03128,0.01043 v 0 l 0.02086,0.02086 0.03128,0.01043 0.03128,0.02085 0.02086,0.03128 0.02085,0.02086 0.02086,0.03128 0.02085,0.03128 0.02085,0.04171 0.02085,0.04171 0.02086,0.04171 v 0 l 0.114702,1.136589 0.104274,1.136588 0.09385,1.147016 0.09385,1.136589 0.07299,1.147016 0.08342,1.147016 0.06256,1.147016 0.06256,1.147017 0.05214,1.147016 0.04171,1.157443 v 0 l 0.04171,1.147016 0.04171,1.157444 0.04171,1.147016 0.04171,1.147016 0.03128,1.147016 0.04171,1.147016 0.03128,1.147016 0.02085,1.147016 0.03128,1.147016 0.02085,1.136589 v 0 0.05214 0.06257 0.06256 0.06256 0.07299 0.07299 0.08342 0.08342 0.08342 0.09385 0 0.08342 0.07299 0.06256 0.06256 0.05214 l -0.01043,0.04171 v 0.03128 0.02085 l -0.01043,0.02085 v 0.01043 0 l -0.08342,0.04171 -0.08342,0.03128 -0.07299,0.03128 -0.07299,0.02085 -0.07299,0.03128 -0.07299,0.01043 -0.07299,0.02085 -0.06256,0.01043 h -0.07299 -0.06256 v 0 h -0.06256 l -0.06256,-0.01043 -0.06256,-0.01043 -0.06256,-0.02085 -0.05214,-0.01043 -0.06256,-0.02086 -0.05214,-0.02085 -0.05214,-0.02086 -0.05214,-0.03128 -0.06256,-0.02085 v 0 l -0.04171,-0.04171 -0.05214,-0.03128 -0.05214,-0.03128 -0.04171,-0.04171 -0.04171,-0.04171 -0.04171,-0.03128 -0.03128,-0.04171 -0.03128,-0.04171 -0.04171,-0.03128 -0.02085,-0.04171 v 0 l -0.03128,-0.04171 -0.02085,-0.04171 -0.03128,-0.04171 -0.01043,-0.03128 -0.02085,-0.04171 -0.01043,-0.04171 -0.01043,-0.03128 -0.01043,-0.04171 v -0.03128 z"
     style="fill:#011f27;fill-rule:nonzero;stroke:none;stroke-width:0.782056"
     id="path89" /><path
     d="m 47.600178,37.505929 v 0 l -0.03128,0.07299 -0.03128,0.07299 -0.04171,0.08342 -0.04171,0.09385 -0.06256,0.09385 -0.05214,0.09385 -0.07299,0.104274 -0.07299,0.104274 -0.08342,0.114702 -0.09385,0.125129 v 0 l -0.08342,0.114701 -0.09385,0.114702 -0.09385,0.114701 -0.104274,0.125129 -0.104275,0.114702 -0.104274,0.114702 -0.104274,0.125129 -0.114702,0.114701 -0.114701,0.125129 -0.125129,0.125129 v 0 l -0.114702,0.114702 -0.125129,0.104274 -0.125129,0.114702 -0.125129,0.104274 -0.125129,0.104274 -0.135556,0.104274 -0.125129,0.104275 -0.135557,0.09385 -0.125129,0.104274 -0.135556,0.09385 v 0 l -0.125129,0.08342 -0.125129,0.07299 -0.114702,0.06256 -0.125129,0.05214 -0.114702,0.05214 -0.104274,0.04171 -0.114701,0.03128 -0.104275,0.02085 -0.104274,0.01043 h -0.09385 v 0 l -0.187693,-0.01043 -0.177266,-0.02085 -0.166839,-0.04171 -0.166839,-0.06256 -0.156411,-0.08342 -0.145984,-0.09385 -0.145984,-0.114702 -0.135556,-0.125129 -0.135557,-0.145984 -0.125129,-0.166838 v 0 l -0.104274,-0.177266 -0.114701,-0.187694 -0.104275,-0.198121 -0.09385,-0.208548 -0.09385,-0.218976 -0.08342,-0.229403 -0.08342,-0.239831 -0.08342,-0.250258 -0.06256,-0.250258 -0.07299,-0.271113 v 0 l -0.06256,-0.271113 -0.05214,-0.28154 -0.05214,-0.291968 -0.05214,-0.291968 -0.04171,-0.302395 -0.04171,-0.302395 -0.04171,-0.302395 -0.03128,-0.32325 -0.03128,-0.32325 -0.02085,-0.32325 v 0 l -0.03128,-0.333678 -0.02085,-0.333677 -0.01043,-0.333677 -0.02085,-0.333678 -0.01043,-0.32325 -0.02085,-0.32325 -0.01043,-0.333677 -0.01043,-0.32325 -0.01043,-0.312823 v -0.32325 0 l -0.01043,-0.312822 v -0.312823 l -0.01043,-0.302395 v -0.302395 -0.291968 l -0.01043,-0.28154 v -0.28154 -0.281541 -0.271113 -0.260685 0 -0.250258 -0.239831 l -0.01043,-0.229403 v -0.218976 l -0.01043,-0.208548 -0.01043,-0.187694 -0.01043,-0.177266 -0.01043,-0.166839 -0.02085,-0.145983 -0.01043,-0.145984 v 0 l 0.02085,-0.05214 0.02085,-0.05214 0.03128,-0.04171 0.02086,-0.04171 0.03128,-0.04171 0.03128,-0.03128 0.03128,-0.03128 0.03128,-0.02086 0.03128,-0.02085 0.03128,-0.01043 v 0 l 0.04171,-0.01043 0.04171,-0.01043 0.05214,-0.01043 0.04171,-0.01043 h 0.04171 l 0.05214,-0.01043 h 0.04171 0.05214 l 0.05214,-0.01043 h 0.05214 v 0 h 0.04171 l 0.04171,0.01043 h 0.05214 0.04171 l 0.04171,0.01043 h 0.03128 l 0.04171,0.01043 0.04171,0.01043 0.03128,0.01043 0.04171,0.01043 v 0 l 0.04171,0.01043 0.03128,0.02085 0.04171,0.02086 0.03128,0.03128 0.04171,0.03128 0.03128,0.04171 0.03128,0.04171 0.03128,0.04171 0.03128,0.05214 0.03128,0.05214 v 0 0.07299 0.07299 0.08342 0.09385 0.104274 0.114701 0.114702 0.135556 0.135557 0.145984 0 l 0.01043,0.156411 v 0.156411 l 0.01043,0.156412 0.01043,0.166838 0.01043,0.166839 v 0.177266 l 0.01043,0.177266 0.01043,0.177266 0.01043,0.187694 0.01043,0.187694 v 0 l 0.02086,0.187693 0.01043,0.187694 0.01043,0.187693 0.01043,0.198121 0.01043,0.198121 0.01043,0.198121 0.01043,0.198121 0.01043,0.198121 0.01043,0.208548 0.02085,0.208549 v 0 l 0.01043,0.198121 0.01043,0.198121 0.01043,0.198121 0.01043,0.198121 v 0.198121 l 0.01043,0.19812 0.01043,0.187694 0.01043,0.187694 v 0.187693 l 0.01043,0.187694 v 0 l 0.01043,0.187693 0.01043,0.177266 0.01043,0.177266 0.01043,0.177267 0.01043,0.166838 0.01043,0.166839 v 0.156411 l 0.01043,0.166839 0.01043,0.156411 v 0.145984 0 l 0.01043,0.145984 0.01043,0.135556 0.01043,0.125129 0.01043,0.114702 0.01043,0.114702 0.01043,0.104274 0.01043,0.09385 v 0.08342 l 0.01043,0.08342 0.01043,0.07299 v 0 0.04171 l 0.01043,0.05214 v 0.05214 l 0.01043,0.06256 v 0.06256 l 0.01043,0.06256 v 0.08342 l 0.01043,0.07299 0.01043,0.08342 v 0.09385 0 l 0.01043,0.09385 0.01043,0.09385 0.02086,0.09385 0.01043,0.09385 0.01043,0.104274 0.02085,0.09385 0.01043,0.104274 0.02086,0.104274 0.01043,0.09385 0.02085,0.104274 v 0 l 0.02085,0.104275 0.03128,0.09385 0.02085,0.09385 0.02085,0.09385 0.03128,0.09385 0.02085,0.08342 0.03128,0.08342 0.03128,0.09385 0.02085,0.08342 0.03128,0.08342 v 0 l 0.03128,0.07299 0.04171,0.07299 0.04171,0.06256 0.04171,0.05214 0.04171,0.04171 0.04171,0.04171 0.04171,0.03128 0.05214,0.03128 0.05214,0.01043 0.05214,0.01043 v 0 h 0.08342 l 0.08342,-0.01043 0.09385,-0.02085 0.08342,-0.03128 0.08342,-0.03128 0.09385,-0.04171 0.08342,-0.04171 0.08342,-0.06256 0.09385,-0.06256 0.08342,-0.07299 v 0 l 0.09385,-0.07299 0.09385,-0.08342 0.08342,-0.08342 0.09385,-0.09385 0.09385,-0.09385 0.08342,-0.09385 0.09385,-0.104274 0.08342,-0.104274 0.09385,-0.114702 0.08342,-0.114702 v 0 l 0.08342,-0.114701 0.09385,-0.114702 0.08342,-0.125129 0.08342,-0.125129 0.07299,-0.125129 0.08342,-0.125129 0.08342,-0.135556 0.07299,-0.135557 0.08342,-0.135556 0.07299,-0.135557 v 0 l 0.07299,-0.135556 0.07299,-0.135557 0.07299,-0.135556 0.07299,-0.135556 0.06256,-0.135557 0.06256,-0.135556 0.06256,-0.125129 0.06256,-0.135557 0.06256,-0.125129 0.06256,-0.135556 v 0 l 0.06256,-0.125129 0.05214,-0.135557 0.06256,-0.125129 0.05214,-0.125129 0.04171,-0.114701 0.05214,-0.114702 0.03128,-0.114702 0.04171,-0.114701 0.03128,-0.104274 0.03128,-0.114702 v 0 l 0.04171,-0.09385 0.02086,-0.09385 0.03128,-0.09385 0.02085,-0.08342 0.03128,-0.08342 0.01043,-0.07299 0.02086,-0.06256 0.01043,-0.06256 0.01043,-0.05214 0.01043,-0.05214 v 0 l 0.01043,-0.104274 0.01043,-0.104275 0.01043,-0.125129 0.01043,-0.125129 0.01043,-0.135556 0.01043,-0.145984 0.02085,-0.145984 0.01043,-0.156411 0.01043,-0.166839 0.01043,-0.177266 v 0 l 0.01043,-0.187693 0.01043,-0.187694 0.01043,-0.198121 0.01043,-0.187694 0.01043,-0.198121 0.01043,-0.19812 V 30.67597 l 0.01043,-0.208549 0.01043,-0.198121 v -0.208548 0 l 0.01043,-0.208549 v -0.208548 l 0.01043,-0.198121 v -0.198121 -0.198121 l 0.01043,-0.198121 v -0.198121 -0.187693 -0.187694 -0.187693 0 l 0.01043,-0.177266 v -0.177267 -0.166838 l 0.01043,-0.156412 v -0.145983 -0.135557 l 0.01043,-0.125129 v -0.125129 -0.104274 -0.104274 l 1.595395,0.08342 v 0 0.469234 0.448379 l 0.01043,0.448379 -0.01043,0.437952 v 0.437951 0.417097 l -0.01043,0.417097 v 0.406669 l -0.01043,0.385814 -0.01043,0.396242 v 0 l -0.01043,0.36496 -0.01043,0.375387 -0.01043,0.36496 v 0.364959 l -0.01043,0.354533 v 0.354532 0.354532 0.344105 l 0.01043,0.344105 v 0.333677 0 l 0.01043,0.333678 0.01043,0.32325 0.01043,0.333677 0.02085,0.32325 0.03128,0.32325 0.02085,0.312823 0.03128,0.32325 0.04171,0.312822 0.04171,0.32325 0.04171,0.312823 v 0 l 0.05214,0.312822 0.05214,0.312823 0.07299,0.32325 0.07299,0.32325 0.07299,0.32325 0.09385,0.32325 0.09385,0.32325 0.104274,0.333677 0.104275,0.333678 0.125129,0.333677 v 0 l -0.02085,0.02085 -0.02086,0.01043 -0.03128,0.02086 -0.03128,0.02085 -0.03128,0.03128 -0.03128,0.02086 -0.04171,0.02085 -0.04171,0.03128 -0.05214,0.02085 -0.05214,0.03128 v 0 l -0.05214,0.03128 -0.04171,0.03128 -0.04171,0.03128 -0.05214,0.02085 -0.03128,0.02085 -0.04171,0.01043 -0.03128,0.01043 -0.03128,0.01043 -0.02085,0.01043 h -0.03128 v 0 l -0.135556,-0.01043 -0.135557,-0.01043 -0.125129,-0.02086 -0.104274,-0.04171 -0.104274,-0.04171 -0.09385,-0.05214 -0.08342,-0.06256 -0.08342,-0.07299 -0.06256,-0.08342 -0.05214,-0.09385 v 0 l -0.05214,-0.09385 -0.04171,-0.104274 -0.03128,-0.104274 -0.04171,-0.104275 -0.03128,-0.104274 -0.03128,-0.114701 -0.03128,-0.114702 -0.02085,-0.114702 -0.02086,-0.125129 -0.02085,-0.125129 v 0 l -0.01043,-0.135556 -0.01043,-0.125129 -0.01043,-0.135557 -0.01043,-0.135556 -0.01043,-0.125129 -0.02085,-0.135557 -0.01043,-0.125129 -0.01043,-0.125129 -0.01043,-0.135556 -0.01043,-0.125129 v 0 l -0.01043,-0.135557 -0.01043,-0.114701 -0.02085,-0.125129 -0.03128,-0.114702 -0.03128,-0.104274 -0.04171,-0.104274 -0.05214,-0.09385 -0.05214,-0.08342 -0.06256,-0.09385 z"
     style="fill:#011f27;fill-rule:nonzero;stroke:none;stroke-width:0.782056"
     id="path90" /><path
     d="m 54.033896,40.436034 v 0 0 l 0.02085,-0.01043 0.03128,-0.01043 0.04171,-0.02086 0.05214,-0.03128 0.07299,-0.04171 0.07299,-0.05214 0.09385,-0.05214 0.104274,-0.06256 0.114702,-0.07299 v 0 l 0.125129,-0.07299 0.135557,-0.08342 0.145983,-0.08342 0.135557,-0.09385 0.145984,-0.09385 0.145984,-0.104274 0.156411,-0.104274 0.156411,-0.114702 0.166839,-0.114701 0.166839,-0.114702 v 0 l 0.166838,-0.135556 0.177266,-0.125129 0.177266,-0.135557 0.177267,-0.125129 0.177266,-0.135556 0.177266,-0.145984 0.177266,-0.135557 0.177266,-0.135556 0.177266,-0.145984 0.177266,-0.145984 v 0 l 0.177266,-0.145984 0.177267,-0.145983 0.156411,-0.145984 0.156411,-0.145984 0.156411,-0.145984 0.145984,-0.145984 0.135557,-0.135556 0.135556,-0.135557 0.125129,-0.135556 0.114702,-0.135557 v 0 l 0.114701,-0.135556 0.09385,-0.125129 0.09385,-0.125129 0.07299,-0.114702 0.06256,-0.114701 0.06256,-0.114702 0.04171,-0.104274 0.03128,-0.104274 0.02085,-0.09385 0.01043,-0.09385 v 0 l 0.01043,-0.09385 -0.02085,-0.09385 -0.03128,-0.08342 -0.05214,-0.07299 -0.07299,-0.06256 -0.08342,-0.06256 -0.104274,-0.05214 -0.125129,-0.05214 -0.135557,-0.03128 -0.166838,-0.03128 v 0 l -0.198121,-0.03128 -0.198121,-0.02086 -0.198121,-0.01043 -0.187694,-0.01043 h -0.177266 l -0.177266,0.01043 -0.166839,0.01043 -0.156411,0.02086 -0.156411,0.02085 -0.145984,0.03128 v 0 l -0.135557,0.04171 -0.135556,0.03128 -0.135556,0.04171 -0.135557,0.04171 -0.125129,0.03128 -0.125129,0.04171 -0.125129,0.04171 -0.125129,0.05214 -0.114702,0.04171 -0.114701,0.04171 v 0 l -0.114702,0.05214 -0.114701,0.04171 -0.114702,0.04171 -0.114702,0.05214 -0.114701,0.04171 -0.104274,0.04171 -0.114702,0.04171 -0.104274,0.04171 -0.104274,0.04171 -0.104275,0.04171 v 0 l -0.104274,0.04171 -0.09385,0.03128 -0.104274,0.02085 -0.114701,0.02086 -0.104275,0.02085 -0.114701,0.01043 -0.114702,0.01043 H 54.17988 54.065178 l -0.125129,-0.01043 v 0 l -0.239831,-0.01043 -0.23983,-0.02085 -0.208549,-0.04171 -0.198121,-0.05214 -0.187693,-0.07299 -0.166839,-0.08342 -0.156411,-0.104274 -0.135557,-0.114702 -0.125129,-0.135556 -0.104274,-0.145984 v 0 l -0.09385,-0.166839 -0.07299,-0.177266 -0.07299,-0.198121 -0.06256,-0.198121 -0.04171,-0.208548 -0.04171,-0.229404 -0.04171,-0.229403 -0.02086,-0.250258 -0.01043,-0.250258 -0.01043,-0.271113 v 0 l 0.01043,-0.271113 0.02086,-0.260685 0.03128,-0.271113 0.04171,-0.260686 0.05214,-0.260685 0.06256,-0.250258 0.08342,-0.260686 0.09385,-0.250258 0.104274,-0.23983 0.114702,-0.250258 v 0 l 0.125129,-0.239831 0.125129,-0.239831 0.145984,-0.23983 0.145984,-0.218976 0.145984,-0.218976 0.166838,-0.208548 0.166839,-0.208549 0.166839,-0.198121 0.187693,-0.187693 0.187694,-0.187694 v 0 l 0.187693,-0.166838 0.208549,-0.177267 0.198121,-0.156411 0.218976,-0.156411 0.208548,-0.145984 0.229403,-0.135556 0.229403,-0.125129 0.229404,-0.125129 0.23983,-0.114702 0.250258,-0.114702 v 0 l 0.250258,-0.104274 0.250258,-0.09385 0.250258,-0.08342 0.250258,-0.06256 0.260686,-0.06256 0.250258,-0.05214 0.260686,-0.04171 0.260685,-0.02086 0.260685,-0.02085 h 0.260686 v 0 h 0.09385 0.104274 0.09385 l 0.09385,0.01043 0.09385,0.01043 0.09385,0.01043 0.08342,0.01043 0.08342,0.01043 0.07299,0.01043 0.08342,0.02086 v 0 l 0.07299,0.02086 0.06256,0.03128 0.05214,0.04171 0.05214,0.05214 0.04171,0.06256 0.03128,0.07299 0.03128,0.08342 0.01043,0.08342 0.01043,0.104274 0.01043,0.114702 v 0 l -0.01043,0.08342 -0.01043,0.07299 -0.01043,0.08342 -0.03128,0.07299 -0.03128,0.08342 -0.03128,0.07299 -0.05214,0.08342 -0.05214,0.07299 -0.05214,0.08342 -0.07299,0.07299 v 0 l -0.06256,0.06256 -0.07299,0.06256 -0.07299,0.05214 -0.08342,0.04171 -0.07299,0.04171 -0.08342,0.03128 -0.07299,0.02085 -0.08342,0.02086 -0.08342,0.01043 h -0.09385 v 0 0 h -0.01043 -0.01043 -0.01043 l -0.01043,-0.01043 h -0.02085 -0.02086 l -0.01043,-0.01043 h -0.02085 l -0.02085,-0.01043 v 0 l -0.03128,-0.01043 -0.02085,-0.01043 -0.02085,-0.01043 -0.02086,-0.02085 -0.03128,-0.01043 -0.02086,-0.01043 -0.02085,-0.02086 -0.02085,-0.01043 -0.02085,-0.02085 -0.03128,-0.02086 v 0 l -0.02085,-0.01043 -0.02085,-0.02085 -0.02086,-0.01043 -0.03128,-0.01043 -0.02086,-0.01043 -0.02085,-0.02086 h -0.02085 l -0.02086,-0.01043 -0.03128,-0.01043 -0.02085,-0.01043 v 0 l -0.02086,-0.01043 -0.02085,-0.01043 h -0.02085 l -0.01043,-0.01043 -0.02086,-0.01043 h -0.01043 l -0.01043,-0.01043 h -0.01043 -0.01043 -0.01043 v 0 l -0.187693,-0.04171 -0.177266,-0.03128 -0.187694,-0.01043 h -0.177266 l -0.177266,0.02086 -0.187694,0.03128 -0.177266,0.05214 -0.177266,0.06256 -0.166839,0.08342 -0.177266,0.09385 v 0 l -0.177266,0.104274 -0.166839,0.114701 -0.166838,0.125129 -0.156412,0.135557 -0.156411,0.135556 -0.156411,0.145984 -0.156412,0.156411 -0.145983,0.156412 -0.145984,0.166838 -0.135557,0.177267 v 0 l -0.135556,0.177266 -0.125129,0.177266 -0.114702,0.177266 -0.114701,0.187693 -0.114702,0.187694 -0.104274,0.198121 -0.09385,0.198121 -0.09385,0.198121 -0.09385,0.198121 -0.08342,0.208548 v 0 l -0.07299,0.208549 -0.07299,0.187693 -0.06256,0.198121 -0.05214,0.187694 -0.04171,0.187693 -0.04171,0.177266 -0.02085,0.177266 -0.02085,0.166839 -0.01043,0.177266 -0.01043,0.156412 v 0 0.06256 l 0.01043,0.06256 v 0.06256 l 0.01043,0.05214 0.01043,0.05214 0.01043,0.05214 0.02085,0.05214 0.01043,0.04171 0.02086,0.04171 0.02085,0.04171 v 0 l 0.03128,0.04171 0.03128,0.03128 0.03128,0.03128 0.03128,0.02085 0.04171,0.03128 0.03128,0.02086 0.03128,0.03128 0.04171,0.02085 0.04171,0.02086 0.04171,0.01043 v 0 l 0.04171,0.02085 0.05214,0.02086 0.04171,0.01043 0.05214,0.01043 0.05214,0.01043 0.04171,0.01043 0.05214,0.01043 0.05214,0.01043 0.05214,0.01043 0.05214,0.01043 v 0 h 0.05214 0.06256 0.06256 0.05214 0.06256 0.05214 0.06256 0.05214 0.06256 0.05214 v 0 l 0.125129,-0.01043 h 0.114702 l 0.114702,-0.01043 0.114701,-0.01043 0.114702,-0.02085 0.114701,-0.01043 0.114702,-0.03128 0.114702,-0.02085 0.114701,-0.03128 0.125129,-0.03128 v 0 l 0.114702,-0.04171 0.125129,-0.03128 0.114702,-0.04171 0.114701,-0.03128 0.125129,-0.04171 0.114702,-0.04171 0.114701,-0.04171 0.104275,-0.04171 0.114701,-0.05214 0.114702,-0.04171 v 0 l 0.114701,-0.04171 0.114702,-0.05214 0.114702,-0.04171 0.114701,-0.04171 0.114702,-0.04171 0.114701,-0.04171 0.114702,-0.03128 0.125129,-0.04171 0.114702,-0.04171 0.114701,-0.03128 v 0 l 0.125129,-0.03128 0.114702,-0.03128 0.125129,-0.02085 0.125129,-0.03128 0.125129,-0.01043 0.125129,-0.02085 0.125129,-0.01043 0.125129,-0.01043 h 0.125129 l 0.125129,-0.01043 v 0 l 0.06256,0.01043 h 0.06256 l 0.05214,0.01043 0.06256,0.01043 0.06256,0.02085 0.07299,0.01043 0.06256,0.03128 0.06256,0.02085 0.07299,0.03128 0.06256,0.03128 v 0 l 0.07299,0.03128 0.07299,0.03128 0.06256,0.04171 0.06256,0.04171 0.06256,0.04171 0.06256,0.05214 0.06256,0.05214 0.06256,0.05214 0.06256,0.06256 0.06256,0.05214 v 0 l 0.05214,0.06256 0.05214,0.06256 0.06256,0.06256 0.04171,0.07299 0.05214,0.06256 0.05214,0.07299 0.04171,0.07299 0.05214,0.07299 0.04171,0.08342 0.04171,0.07299 v 0 l 0.04171,0.07299 0.03128,0.08342 0.03128,0.08342 0.03128,0.07299 0.02085,0.08342 0.02085,0.09385 0.02085,0.08342 0.01043,0.08342 0.01043,0.09385 0.01043,0.09385 v 0 l 0.03128,0.08342 0.02086,0.08342 0.01043,0.09385 v 0.104274 0.104275 l -0.02086,0.104274 -0.02085,0.114701 -0.04171,0.125129 -0.04171,0.125129 -0.05214,0.135557 v 0 l -0.05214,0.125129 -0.06257,0.135556 -0.07299,0.145984 -0.07299,0.135557 -0.07299,0.145983 -0.08342,0.135557 -0.09385,0.145984 -0.09385,0.145984 -0.104274,0.145984 -0.104275,0.156411 v 0 l -0.114701,0.145984 -0.114702,0.156411 -0.125129,0.145984 -0.125129,0.156411 -0.125129,0.156411 -0.135556,0.145984 -0.145984,0.156412 -0.145984,0.156411 -0.145984,0.156411 -0.156411,0.156411 v 0 l -0.156412,0.145984 -0.156411,0.145984 -0.156411,0.145984 -0.156411,0.145984 -0.156412,0.135556 -0.156411,0.145984 -0.156411,0.135557 -0.156412,0.125129 -0.156411,0.135556 -0.156411,0.125129 v 0 l -0.156411,0.125129 -0.156412,0.114702 -0.145984,0.104274 -0.156411,0.104274 -0.156411,0.104274 -0.156411,0.09385 -0.145984,0.09385 -0.156412,0.08342 -0.156411,0.08342 -0.145984,0.08342 v 0 l -0.145984,0.07299 -0.145983,0.07299 -0.135557,0.05214 -0.135556,0.05214 -0.135557,0.04171 -0.125129,0.04171 -0.114701,0.02085 -0.114702,0.01043 -0.114702,0.01043 h -0.104274 v 0 h -0.114701 l -0.104275,-0.01043 -0.09385,-0.02086 -0.08342,-0.02085 -0.07299,-0.03128 -0.06256,-0.04171 -0.05214,-0.04171 -0.05214,-0.05214 -0.03128,-0.06256 -0.03128,-0.06256 v 0 l -0.02086,-0.07299 -0.01043,-0.07299 -0.01043,-0.07299 -0.01043,-0.07299 -0.01043,-0.08342 -0.01043,-0.07299 -0.01043,-0.08342 v -0.08342 -0.08342 z"
     style="fill:#011f27;fill-rule:nonzero;stroke:none;stroke-width:0.782056"
     id="path91" /><path
     d="m 63.387291,28.496639 v 0 l -0.05214,0.03128 -0.06256,0.02086 -0.05214,0.03128 -0.06256,0.03128 -0.05214,0.03128 -0.05214,0.03128 -0.05214,0.04171 -0.05214,0.03128 -0.06256,0.03128 -0.05214,0.03128 v 0 l -0.04171,0.03128 -0.04171,0.03128 -0.05214,0.03128 -0.04171,0.02086 -0.05214,0.03128 -0.04171,0.03128 -0.05214,0.03128 -0.04171,0.03128 -0.05214,0.02085 -0.04171,0.03128 v 0 l -0.04171,0.02086 -0.05214,0.02086 -0.04171,0.02085 -0.05214,0.02086 -0.04171,0.02085 -0.05214,0.01043 -0.04171,0.02086 -0.05214,0.01043 -0.04171,0.02085 -0.04171,0.01043 v 0 l -0.05214,0.01043 -0.05214,0.01043 h -0.04171 -0.05214 l -0.04171,0.01043 -0.05214,-0.01043 h -0.05214 -0.05214 l -0.05214,-0.01043 -0.05214,-0.01043 v 0 h -0.03128 l -0.03128,-0.01043 -0.03128,-0.01043 -0.03128,-0.01043 -0.03128,-0.02086 -0.03128,-0.02086 -0.02086,-0.03128 -0.03128,-0.03128 -0.02085,-0.03128 -0.03128,-0.04171 v 0 l -0.02085,-0.04171 -0.02085,-0.05214 -0.02086,-0.04171 -0.02085,-0.05214 -0.01043,-0.05214 -0.02085,-0.04171 -0.01043,-0.05214 -0.02086,-0.05214 -0.01043,-0.05214 -0.01043,-0.05214 v 0 l -0.02086,-0.05214 -0.01043,-0.06256 -0.02085,-0.05214 -0.01043,-0.06256 -0.01043,-0.05214 -0.01043,-0.05214 -0.01043,-0.05214 -0.01043,-0.06256 -0.01043,-0.05214 v -0.05214 0 l -0.01043,-0.05214 v -0.05214 -0.05214 l -0.01043,-0.05214 v -0.04171 -0.04171 l 0.01043,-0.04171 v -0.03128 -0.03128 l 0.01043,-0.03128 2.773694,-1.595395 0.177266,-7.413895 v 0 l 0.02085,-0.07299 0.02085,-0.06256 0.02085,-0.05214 0.04171,-0.04171 0.04171,-0.03128 0.05214,-0.03128 0.05214,-0.01043 0.06256,-0.01043 0.07299,0.01043 0.08342,0.01043 v 0 l 0.07299,0.01043 0.08342,0.01043 0.08342,0.02086 0.08342,0.01043 0.08342,0.02086 0.08342,0.01043 0.08342,0.02085 0.09385,0.02086 0.08342,0.02086 0.08342,0.02085 v 0 h 0.01043 l 0.02085,0.01043 h 0.01043 0.01043 l 0.02085,0.01043 h 0.02085 l 0.02085,0.01043 0.02085,0.01043 0.02086,0.01043 0.02085,0.01043 v 0 l 0.03128,0.01043 h 0.02085 l 0.02085,0.01043 h 0.03128 l 0.02085,0.01043 h 0.01043 l 0.02085,0.01043 h 0.02086 l 0.01043,0.01043 0.01043,0.01043 v 0 l -0.01043,0.156411 -0.01043,0.156412 -0.01043,0.166838 -0.02085,0.166839 -0.01043,0.166839 -0.01043,0.177266 -0.02085,0.166838 -0.01043,0.177267 -0.02085,0.187693 -0.02085,0.177266 v 0 l -0.01043,0.187694 -0.01043,0.177266 -0.01043,0.177266 -0.01043,0.187694 -0.01043,0.177266 -0.01043,0.187693 -0.01043,0.177266 -0.02086,0.187694 -0.01043,0.187693 -0.01043,0.187694 v 0 l -0.01043,0.177266 -0.01043,0.177266 -0.01043,0.177266 -0.01043,0.177266 -0.01043,0.177267 v 0.177266 l -0.01043,0.177266 -0.01043,0.177266 v 0.166839 l -0.01043,0.177266 v 0 0.177266 0.166839 l 0.01043,0.166838 v 0.156412 l 0.01043,0.156411 0.01043,0.156411 0.01043,0.156411 0.01043,0.145984 0.02085,0.145984 0.01043,0.135557 4.348234,-1.220008 v 0 h 0.02085 0.02085 l 0.02085,0.01043 0.02085,0.01043 0.02086,0.01043 0.01043,0.02085 0.02085,0.02086 0.01043,0.03128 0.02085,0.03128 0.01043,0.04171 v 0 l 0.01043,0.03128 0.02085,0.04171 0.01043,0.04171 0.02085,0.04171 0.01043,0.04171 0.02085,0.04171 0.01043,0.04171 0.01043,0.05214 0.01043,0.05214 0.02085,0.05214 v 0 l 0.01043,0.05214 0.02086,0.05214 0.01043,0.05214 0.01043,0.05214 0.02085,0.05214 0.01043,0.05214 0.01043,0.05214 v 0.05214 l 0.01043,0.05214 0.01043,0.05214 v 0 0.04171 l 0.01043,0.05214 v 0.03128 l 0.01043,0.04171 v 0.02086 0.03128 0.01043 0.02085 0 l 0.01043,0.01043 -4.932169,2.085484 v 0 0.05214 0.08342 0.08342 l 0.01043,0.104275 v 0.114701 0.135557 l 0.01043,0.145983 v 0.156412 0.177266 l 0.01043,0.187693 v 0 l 0.01043,0.208549 0.01043,0.208548 0.01043,0.208549 0.01043,0.229403 0.01043,0.229403 0.02085,0.239831 0.01043,0.23983 0.01043,0.260686 0.01043,0.260685 0.01043,0.260686 v 0 l 0.01043,0.271113 0.01043,0.271113 0.01043,0.28154 0.01043,0.28154 0.02086,0.291968 0.01043,0.291968 0.01043,0.291967 0.01043,0.302395 0.01043,0.302396 0.01043,0.312822 v 0 l 0.01043,0.302395 0.01043,0.302396 0.01043,0.302395 0.02085,0.291967 0.01043,0.291968 0.01043,0.28154 0.01043,0.281541 0.01043,0.271113 0.01043,0.28154 0.01043,0.260685 v 0 l 0.01043,0.271113 0.01043,0.250258 0.01043,0.250258 0.01043,0.250258 0.01043,0.229404 0.01043,0.23983 0.01043,0.218976 v 0.218976 l 0.01043,0.218976 0.01043,0.198121 v 0 0.198121 l 0.01043,0.166838 v 0.166839 0.145984 l 0.01043,0.125129 v 0.125129 0.104274 0.08342 0.07299 0.06256 0 l -0.01043,0.166839 -0.02086,0.145984 -0.03128,0.125129 -0.04171,0.114701 -0.05214,0.09385 -0.05214,0.08342 -0.06257,0.06256 -0.07299,0.04171 -0.08342,0.02085 -0.09385,0.01043 v 0 h -0.08342 l -0.09385,-0.01043 -0.08342,-0.03128 -0.09385,-0.02086 -0.09385,-0.04171 -0.104274,-0.05214 -0.09385,-0.05214 -0.104274,-0.06256 -0.09385,-0.08342 -0.104274,-0.08342 z"
     style="fill:#011f27;fill-rule:nonzero;stroke:none;stroke-width:0.782056"
     id="path92" /><path
     d="m 71.416403,34.607107 v 0 l -0.03128,0.01043 h -0.03128 l -0.04171,0.01043 -0.03128,0.01043 -0.04171,0.01043 h -0.05214 l -0.04171,0.01043 -0.05214,0.01043 -0.05214,0.01043 -0.06256,0.01043 v 0 l -0.05214,0.01043 -0.06257,0.01043 -0.06257,0.01043 -0.05214,0.01043 h -0.06256 -0.06256 -0.06256 -0.06256 -0.06256 l -0.06256,-0.01043 v 0 h -0.06256 l -0.06256,-0.01043 -0.06256,-0.01043 -0.05214,-0.02085 -0.06257,-0.01043 -0.05214,-0.02085 -0.05214,-0.02086 -0.05214,-0.02085 -0.04171,-0.03128 -0.05214,-0.02085 v 0 l -0.05214,-0.03128 -0.04171,-0.04171 -0.04171,-0.04171 -0.03128,-0.04171 -0.03128,-0.04171 -0.02085,-0.05214 -0.02085,-0.05214 -0.01043,-0.06256 -0.01043,-0.06256 v -0.07299 0 -0.03128 -0.04171 l 0.01043,-0.03128 v -0.03128 l 0.01043,-0.03128 0.01043,-0.03128 0.01043,-0.02085 0.01043,-0.03128 0.02085,-0.02085 0.01043,-0.01043 v 0 l 0.02086,-0.02086 0.02085,-0.02085 0.02085,-0.02085 0.03128,-0.02085 0.03128,-0.03128 0.02086,-0.02085 0.04171,-0.03128 0.03128,-0.03128 0.03128,-0.03128 0.04171,-0.03128 v 0 l 0.125129,-0.114702 0.125129,-0.114702 0.114701,-0.114701 0.114702,-0.125129 0.104274,-0.125129 0.114702,-0.145984 0.09385,-0.135557 0.104274,-0.145984 0.08342,-0.156411 0.09385,-0.156411 v 0 l 0.09385,-0.177266 0.08342,-0.166839 0.09385,-0.166839 0.08342,-0.177266 0.08342,-0.177266 0.08342,-0.177266 0.08342,-0.177266 0.08342,-0.187694 0.07299,-0.177266 0.08342,-0.187693 v 0 l 0.07299,-0.187694 0.07299,-0.187693 0.07299,-0.198121 0.08342,-0.187694 0.07299,-0.187693 0.08342,-0.187694 0.07299,-0.187694 0.08342,-0.187693 0.08342,-0.187694 0.08342,-0.177266 v 0 l 0.08342,-0.198121 0.09385,-0.177266 0.09385,-0.187693 0.09385,-0.177266 0.09385,-0.166839 0.104274,-0.166839 0.09385,-0.166839 0.104274,-0.166838 0.114701,-0.156412 0.104275,-0.145983 v 0 l 0.114701,-0.156412 0.114702,-0.135556 0.125129,-0.135557 0.125129,-0.135556 0.135556,-0.125129 0.135557,-0.114702 0.145984,-0.114701 0.156411,-0.104275 0.145984,-0.104274 0.166839,-0.09385 v 0 l 0.166838,-0.08342 0.166839,-0.08342 0.187693,-0.06256 0.187694,-0.06256 0.187694,-0.05214 0.208548,-0.03128 0.208548,-0.03128 0.218976,-0.02086 0.229403,-0.01043 h 0.229404 v 0 h 0.104274 l 0.104274,0.01043 0.104274,0.01043 0.104274,0.02086 0.104274,0.02085 0.114702,0.02085 0.114702,0.03128 0.114701,0.03128 0.114702,0.04171 0.125129,0.05214 v 0 l 0.125129,0.04171 0.114702,0.05214 0.114701,0.05214 0.114702,0.06256 0.114701,0.06256 0.114702,0.06256 0.114702,0.07299 0.104274,0.07299 0.104274,0.07299 0.104274,0.08342 v 0 l 0.104274,0.07299 0.104275,0.08342 0.09385,0.08342 0.09385,0.08342 0.08342,0.09385 0.08342,0.09385 0.08342,0.09385 0.08342,0.104275 0.07299,0.104274 0.07299,0.114701 v 0 l 0.06257,0.104275 0.06256,0.114701 0.05214,0.114702 0.04171,0.125129 0.04171,0.114701 0.03128,0.125129 0.02085,0.12513 0.02086,0.125129 0.01043,0.135556 v 0.125129 0 l 0.02085,0.05214 0.01043,0.05214 v 0.05214 l -0.01043,0.06257 -0.02085,0.06256 -0.03128,0.07299 -0.05214,0.07299 -0.05214,0.07299 -0.07299,0.08342 -0.08342,0.08342 v 0 l -0.08342,0.09385 -0.09385,0.08342 -0.09385,0.09385 -0.104275,0.09385 -0.104274,0.09385 -0.114701,0.09385 -0.125129,0.104274 -0.135557,0.09385 -0.135556,0.104274 -0.135557,0.104274 v 0 l -0.145984,0.09385 -0.156411,0.104274 -0.156411,0.104275 -0.156411,0.104274 -0.156412,0.09385 -0.166838,0.114702 -0.177267,0.104274 -0.177266,0.104274 -0.177266,0.104275 -0.187693,0.114701 v 0 l -0.177267,0.104274 -0.177266,0.104275 -0.177266,0.09385 -0.177266,0.104275 -0.166839,0.104274 -0.177266,0.09385 -0.166838,0.09385 -0.177267,0.09385 -0.166838,0.09385 -0.166839,0.09385 v 0 l -0.166839,0.09385 -0.166838,0.09385 -0.156412,0.08342 -0.156411,0.08342 -0.145984,0.08342 -0.145984,0.08342 -0.145984,0.07299 -0.135556,0.07299 -0.135556,0.07299 -0.125129,0.07299 v 0 l -0.125129,0.07299 -0.114702,0.06256 -0.104274,0.06256 -0.09385,0.05214 -0.09385,0.05214 -0.07299,0.05214 -0.07299,0.05214 -0.06256,0.04171 -0.05214,0.04171 -0.05214,0.03128 v 0 l -0.02086,0.06257 -0.03128,0.06256 -0.02086,0.06256 -0.03128,0.06256 -0.02085,0.06256 -0.02086,0.07299 -0.02085,0.06256 -0.02085,0.07299 -0.02085,0.07299 -0.02085,0.07299 v 0 l -0.01043,0.07299 -0.02085,0.07299 -0.01043,0.07299 -0.02085,0.08342 -0.01043,0.06256 -0.02085,0.07299 -0.01043,0.07299 -0.01043,0.07299 -0.01043,0.07299 -0.02085,0.07299 v 0 0.06256 l -0.01043,0.06256 v 0.06256 l -0.01043,0.06256 v 0.05214 l -0.01043,0.06256 -0.01043,0.06256 v 0.06256 l -0.01043,0.05214 v 0.06256 0 0.05214 0.04171 0.05214 0.04171 0.04171 0.04171 0.03128 0.04171 0.03128 0.03128 0 0.104274 0.114702 l -0.01043,0.114701 v 0.12513 L 72.844992,36.14 v 0.125129 l -0.01043,0.125129 -0.01043,0.125129 -0.01043,0.135557 -0.01043,0.125129 v 0 0.135556 0.135557 0.125129 0.135556 0.125129 l 0.01043,0.125129 0.01043,0.125129 0.01043,0.125129 0.01043,0.125129 0.02085,0.125129 v 0 l 0.02085,0.114702 0.03128,0.104274 0.04171,0.114702 0.04171,0.104274 0.04171,0.09385 0.05214,0.09385 0.06256,0.09385 0.06256,0.09385 0.06256,0.08342 0.07299,0.08342 v 0 l 0.08342,0.07299 0.08342,0.06256 0.104274,0.06256 0.114702,0.04171 0.125129,0.04171 0.125129,0.04171 0.145984,0.02085 0.156411,0.02086 0.166839,0.01043 h 0.166838 v 0 h 0.198121 l 0.187694,-0.01043 0.177266,-0.03128 0.187693,-0.03128 0.177267,-0.04171 0.177266,-0.05214 0.177266,-0.05214 0.177266,-0.07299 0.166839,-0.08342 0.177266,-0.08342 v 0 l 0.166838,-0.104274 0.156412,-0.104274 0.166838,-0.104274 0.156412,-0.114702 0.156411,-0.114702 0.156411,-0.125129 0.156412,-0.125129 0.145983,-0.125129 0.156412,-0.135556 0.145984,-0.135557 v 0 l 0.135556,-0.135556 0.145984,-0.145984 0.135556,-0.145984 0.135557,-0.145984 0.135556,-0.156411 0.125129,-0.145984 0.125129,-0.156411 0.125129,-0.156411 0.114702,-0.156412 0.125129,-0.166838 v 0 l 0.114702,-0.156412 0.114701,-0.156411 0.114702,-0.156411 0.114701,-0.156411 0.114702,-0.156412 0.104274,-0.145984 0.104274,-0.145983 0.09385,-0.145984 0.09385,-0.145984 0.09385,-0.135557 v 0 l 0.104274,-0.145983 0.09385,-0.135557 0.09385,-0.125129 0.08342,-0.135556 0.09385,-0.114702 0.08342,-0.114702 0.08342,-0.114701 0.08342,-0.104274 0.07299,-0.104275 0.08342,-0.09385 v 0 l 0.07299,-0.08342 0.07299,-0.08342 0.06256,-0.07299 0.07299,-0.05214 0.06256,-0.05214 0.06256,-0.04171 0.06256,-0.03128 0.06256,-0.03128 0.05214,-0.01043 h 0.05214 v 0 h 0.06257 0.05214 l 0.06256,0.01043 h 0.06256 l 0.05214,0.01043 0.06257,0.02085 0.06256,0.01043 0.06257,0.02086 0.06256,0.02085 0.06257,0.02086 v 0 l 0.07299,0.02085 0.05214,0.02085 0.05214,0.03128 0.05214,0.04171 0.03128,0.04171 0.03128,0.05214 0.03128,0.05214 0.01043,0.06256 0.01043,0.06256 0.01043,0.07299 v 0 l -0.01043,0.104274 -0.01043,0.114702 -0.02085,0.114702 -0.03128,0.114701 -0.04171,0.125129 -0.04171,0.125129 -0.06257,0.135557 -0.06256,0.135556 -0.07299,0.135557 -0.08342,0.145984 v 0 l -0.08342,0.145983 -0.09385,0.145984 -0.09385,0.145984 -0.104275,0.156411 -0.104274,0.145984 -0.114701,0.156412 -0.114702,0.156411 -0.125129,0.156411 -0.135557,0.156411 -0.135556,0.166839 v 0 l -0.135556,0.156411 -0.135557,0.166839 -0.145984,0.166839 -0.145984,0.156411 -0.156411,0.166839 -0.156411,0.156411 -0.166839,0.166839 -0.166839,0.156411 -0.177266,0.166839 -0.177266,0.166838 v 0 l -0.166839,0.145984 -0.177266,0.156412 -0.177266,0.145984 -0.177266,0.145983 -0.177266,0.145984 -0.177266,0.145984 -0.177266,0.135557 -0.177266,0.135556 -0.177267,0.125129 -0.177266,0.135556 v 0 l -0.177266,0.114702 -0.187693,0.114702 -0.177266,0.114701 -0.177267,0.104274 -0.177266,0.104275 -0.177266,0.104274 -0.166839,0.09385 -0.177266,0.09385 -0.177266,0.08342 -0.177266,0.08342 v 0 l -0.166839,0.07299 -0.166838,0.06256 -0.166839,0.05214 -0.156411,0.05214 -0.156412,0.04171 -0.156411,0.03128 -0.145984,0.03128 -0.145984,0.02086 -0.135556,0.01043 H 74.65935 v 0 l -0.250259,-0.01043 -0.23983,-0.01043 -0.229403,-0.03128 -0.218976,-0.05214 -0.208549,-0.05214 -0.187693,-0.07299 -0.177266,-0.08342 -0.166839,-0.09385 -0.145984,-0.104274 -0.145984,-0.125129 v 0 l -0.125129,-0.135557 -0.125129,-0.135556 -0.114701,-0.145984 -0.104275,-0.145984 -0.104274,-0.156411 -0.09385,-0.156412 -0.08342,-0.177266 -0.07299,-0.166838 -0.07299,-0.187694 -0.06256,-0.187693 v 0 l -0.04171,-0.187694 -0.05214,-0.198121 -0.04171,-0.198121 -0.03128,-0.198121 -0.03128,-0.198121 -0.03128,-0.208548 -0.02085,-0.208549 -0.01043,-0.208548 -0.02085,-0.208548 v -0.208549 0 -0.218976 -0.218975 l -0.01043,-0.208549 v -0.208548 -0.208548 -0.198121 l -0.01043,-0.198121 V 34.982494 L 71.416403,34.7948 Z m 5.328411,-7.820565 v 0 h -0.09385 l -0.104275,0.02086 -0.104274,0.02085 -0.104274,0.03128 -0.09385,0.05214 -0.114701,0.05214 -0.104275,0.06256 -0.104274,0.07299 -0.104274,0.08342 -0.114702,0.09385 v 0 l -0.104274,0.09385 -0.114701,0.104274 -0.104275,0.104274 -0.104274,0.104274 -0.104274,0.114702 -0.104274,0.114702 -0.104274,0.125129 -0.104275,0.125129 -0.09385,0.135556 -0.104274,0.135556 v 0 l -0.09385,0.135557 -0.08342,0.135556 -0.08342,0.135557 -0.08342,0.135556 -0.08342,0.145984 -0.07299,0.135557 -0.07299,0.135556 -0.07299,0.145984 -0.07299,0.145984 -0.06256,0.145984 v 0 l -0.05214,0.135556 -0.05214,0.125129 -0.04171,0.135557 -0.04171,0.114701 -0.03128,0.125129 -0.02086,0.114702 -0.02085,0.104274 -0.02085,0.104274 v 0.104274 l -0.01043,0.09385 v 0 l 0.09385,-0.01043 H 73.773 l 0.114702,-0.02086 0.104274,-0.02085 0.125129,-0.03128 0.125129,-0.03128 0.135556,-0.04171 0.145984,-0.05214 0.156411,-0.05214 0.156412,-0.06256 v 0 l 0.166838,-0.07299 0.166839,-0.07299 0.166839,-0.07299 0.166838,-0.08342 0.166839,-0.08342 0.156411,-0.08342 0.166839,-0.08342 0.166839,-0.09385 0.166839,-0.09385 0.156411,-0.09385 v 0 l 0.156411,-0.104275 0.156411,-0.09385 0.156412,-0.104275 0.145984,-0.104274 0.145983,-0.104274 0.135557,-0.104274 0.145984,-0.104274 0.125129,-0.114702 0.125129,-0.104274 0.125129,-0.104274 v 0 l 0.114701,-0.114702 0.104275,-0.104274 0.09385,-0.114702 0.08342,-0.104274 0.06256,-0.104274 0.05214,-0.104274 0.04171,-0.104274 0.03128,-0.09385 0.02085,-0.104274 0.01043,-0.09385 v 0 l -0.01043,-0.05214 v -0.05214 l -0.01043,-0.05214 -0.01043,-0.04171 -0.02085,-0.04171 -0.02085,-0.04171 -0.03128,-0.04171 -0.03128,-0.04171 -0.03128,-0.04171 -0.04171,-0.03128 v 0 l -0.04171,-0.03128 -0.04171,-0.04171 -0.04171,-0.03128 -0.05214,-0.03128 -0.04171,-0.02086 -0.05214,-0.03128 -0.05214,-0.03128 -0.05214,-0.02085 -0.06256,-0.03128 -0.05214,-0.02085 v 0 l -0.05214,-0.02086 -0.05214,-0.02085 -0.05214,-0.02086 -0.06256,-0.02086 -0.05214,-0.02085 -0.05214,-0.01043 -0.05214,-0.02086 -0.06256,-0.01043 -0.05214,-0.01043 -0.06257,-0.02086 v 0 l -0.05214,-0.01043 -0.06256,-0.01043 h -0.05214 l -0.05214,-0.01043 -0.05214,-0.01043 h -0.05214 l -0.05214,-0.01043 h -0.05214 -0.04171 z"
     style="fill:#011f27;fill-rule:nonzero;stroke:none;stroke-width:0.782056"
     id="path93" /><path
     d="m 84.283838,26.901244 v -0.229403 0 -0.06256 -0.05214 l 0.01043,-0.04171 0.02085,-0.05214 0.01043,-0.04171 0.03128,-0.04171 0.02085,-0.03128 0.03128,-0.03128 0.03128,-0.03128 0.04171,-0.02086 v 0 l 0.05214,-0.02085 0.04171,-0.02085 0.05214,-0.02086 0.05214,-0.01043 0.05214,-0.01043 0.05214,-0.01043 0.05214,-0.01043 0.05214,-0.01043 h 0.06256 0.05214 v 0 h 0.04171 0.05214 0.04171 l 0.04171,0.01043 h 0.05214 l 0.04171,0.01043 h 0.04171 l 0.04171,0.01043 0.04171,0.01043 0.04171,0.01043 v 0 l 0.04171,0.01043 0.03128,0.01043 0.04171,0.02085 0.03128,0.03128 0.03128,0.02086 0.03128,0.04171 0.03128,0.03128 0.03128,0.05214 0.02085,0.05214 0.02085,0.05214 v 0 l 0.02085,0.09385 0.02085,0.09385 0.01043,0.104275 0.02085,0.114701 0.02085,0.114702 0.01043,0.125129 0.02085,0.135556 0.02085,0.135557 0.01043,0.145984 0.02085,0.156411 v 0 l 0.02085,0.145984 0.01043,0.156411 0.02085,0.156411 0.02085,0.166839 0.02085,0.166839 0.02085,0.166838 0.02085,0.177267 0.02085,0.177266 0.02086,0.177266 0.02085,0.187693 v 0 l 0.03128,0.187694 0.02086,0.187693 0.02085,0.187694 0.02085,0.198121 0.03128,0.187693 0.02085,0.198121 0.02085,0.208549 0.02085,0.198121 0.02085,0.208548 0.03128,0.208548 v 0 l 0.02085,0.198121 0.03128,0.198121 0.03128,0.198121 0.02086,0.198121 0.03128,0.198121 0.02086,0.187694 0.03128,0.198121 0.02085,0.187693 0.02086,0.187694 0.03128,0.187693 v 0 l 0.02085,0.177267 0.03128,0.177266 0.03128,0.166838 0.03128,0.166839 0.03128,0.166839 0.02086,0.156411 0.03128,0.156411 0.03128,0.156412 0.03128,0.145983 0.02085,0.145984 v 0 l 0.03128,0.145984 0.03128,0.135557 0.03128,0.125129 0.03128,0.125129 0.03128,0.114701 0.03128,0.104275 0.03128,0.09385 0.03128,0.09385 0.04171,0.08342 0.03128,0.08342 v 0 l -0.01043,-0.552653 -0.01043,-0.531799 v -0.521371 l 0.01043,-0.500516 0.01043,-0.490089 0.02085,-0.469233 0.03128,-0.458807 0.03128,-0.448379 0.04171,-0.427524 0.05214,-0.406669 v 0 l 0.05214,-0.40667 0.06256,-0.385814 0.08342,-0.375387 0.08342,-0.354533 0.09385,-0.344104 0.104274,-0.32325 0.104274,-0.312823 0.125129,-0.291968 0.135557,-0.28154 0.135556,-0.260685 v 0 l 0.156412,-0.250259 0.166838,-0.23983 0.177266,-0.218976 0.187694,-0.198121 0.198121,-0.187693 0.208548,-0.177267 0.218976,-0.156411 0.229403,-0.135556 0.239831,-0.125129 0.250258,-0.104275 v 0 l 0.260686,-0.09385 0.28154,-0.08342 0.291968,-0.06256 0.302395,-0.05214 0.32325,-0.03128 0.333677,-0.01043 h 0.344105 l 0.354532,0.02086 0.36496,0.03128 0.385814,0.05214 v 0 l 0.166839,0.01043 0.156411,0.02086 0.135557,0.05214 0.114701,0.06256 0.09385,0.09385 0.08342,0.104274 0.06256,0.125129 0.05214,0.135557 0.02085,0.166838 0.01043,0.177266 v 0 0.07299 l -0.02085,0.07299 -0.02085,0.06256 -0.04171,0.06256 -0.04171,0.05214 -0.05214,0.05214 -0.06256,0.04171 -0.07299,0.04171 -0.08342,0.03128 -0.09385,0.03128 v 0 l -0.104274,0.03128 -0.104275,0.02085 -0.104274,0.02086 -0.104274,0.01043 -0.104274,0.02085 -0.114702,0.02085 -0.114701,0.01043 -0.114702,0.02086 -0.114702,0.01043 -0.125129,0.01043 v 0 l -0.114701,0.01043 h -0.125129 l -0.125129,0.01043 -0.114702,0.01043 -0.125129,0.01043 h -0.114702 l -0.114701,0.01043 -0.114702,0.01043 -0.125129,0.01043 -0.114701,0.01043 v 0 l -0.114702,0.02086 -0.104274,0.01043 -0.09385,0.02085 -0.09385,0.03128 -0.09385,0.02086 -0.07299,0.03128 -0.08342,0.03128 -0.06256,0.04171 -0.06257,0.04171 -0.05214,0.04171 v 0 l -0.208548,0.125129 -0.187694,0.135556 -0.177266,0.145984 -0.166839,0.156411 -0.156411,0.177266 -0.135556,0.187694 -0.135557,0.198121 -0.114702,0.208548 -0.104274,0.229403 -0.09385,0.239831 v 0 l -0.08342,0.239831 -0.07299,0.260685 -0.06256,0.260686 -0.07299,0.28154 -0.05214,0.28154 -0.06256,0.291968 -0.05214,0.291968 -0.04171,0.312822 -0.04171,0.312823 -0.04171,0.333677 v 0 l -0.03128,0.333678 -0.03128,0.333677 -0.03128,0.344105 -0.03128,0.354532 -0.02085,0.36496 -0.03128,0.364959 -0.02085,0.36496 -0.02085,0.385815 -0.02085,0.375387 -0.02085,0.396242 v 0 l -0.01043,0.385814 -0.02085,0.396242 -0.02085,0.396242 -0.03128,0.396242 -0.03128,0.396242 -0.04171,0.396242 -0.05214,0.406669 -0.05214,0.406669 -0.05214,0.40667 -0.06256,0.406669 v 0 0.06257 l -0.01043,0.05214 -0.01043,0.05214 -0.01043,0.04171 -0.02085,0.05214 -0.03128,0.04171 -0.03128,0.03128 -0.03128,0.04171 -0.04171,0.03128 -0.04171,0.03128 v 0 l -0.05214,0.03128 -0.04171,0.02086 -0.05214,0.02085 -0.06256,0.02085 -0.05214,0.01043 -0.06257,0.02085 -0.06256,0.01043 h -0.06257 l -0.06256,0.01043 h -0.07299 v 0 h -0.06257 l -0.06256,-0.01043 h -0.06257 l -0.06256,-0.01043 -0.06257,-0.02085 -0.06256,-0.01043 -0.06256,-0.02085 -0.06256,-0.02085 -0.07299,-0.02086 -0.06256,-0.03128 v 0 l -0.05214,-0.03128 -0.05214,-0.03128 -0.05214,-0.04171 -0.05214,-0.03128 -0.05214,-0.04171 -0.04171,-0.05214 -0.04171,-0.04171 -0.04171,-0.05214 -0.04171,-0.05214 -0.03128,-0.06257 z"
     style="fill:#011f27;fill-rule:nonzero;stroke:none;stroke-width:0.782056"
     id="path94" /><path
     d="m 45.671106,101.52295 v -0.2294 0 -0.0521 l 0.01043,-0.0521 0.01043,-0.0521 0.01043,-0.0417 0.02085,-0.0417 0.02085,-0.0417 0.03128,-0.0417 0.03128,-0.0313 0.03128,-0.0209 0.04171,-0.0313 v 0 l 0.04171,-0.0209 0.05214,-0.0208 0.04171,-0.0104 0.05214,-0.0209 0.05214,-0.0104 0.05214,-0.0104 0.05214,-0.0104 h 0.06256 l 0.05214,-0.0104 h 0.06256 v 0 h 0.04171 0.04171 l 0.05214,0.0104 h 0.04171 l 0.04171,0.0104 h 0.04171 l 0.04171,0.0104 0.04171,0.0104 0.04171,0.0104 0.04171,0.0104 v 0 l 0.04171,0.0104 0.04171,0.0104 0.03128,0.0208 0.03128,0.0209 0.04171,0.0313 0.03128,0.0313 0.02086,0.0417 0.03128,0.0417 0.03128,0.0521 0.02085,0.0521 v 0 l 0.01043,0.0938 0.02085,0.0939 0.02086,0.10427 0.01043,0.1147 0.02085,0.1147 0.02085,0.12513 0.01043,0.13556 0.02085,0.13556 0.02085,0.14598 0.01043,0.15641 v 0 l 0.02086,0.15641 0.02085,0.15641 0.02085,0.15642 0.02086,0.15641 0.02085,0.16684 0.01043,0.17726 0.03128,0.16684 0.02085,0.17727 0.02085,0.18769 0.02085,0.17727 v 0 l 0.02086,0.18769 0.02085,0.18769 0.03128,0.1877 0.02086,0.19812 0.02085,0.19812 0.02086,0.19812 0.02085,0.19812 0.03128,0.19812 0.02086,0.20855 0.02085,0.20855 v 0 l 0.03128,0.19812 0.03128,0.20855 0.02085,0.19812 0.03128,0.19812 0.02085,0.18769 0.03128,0.19812 0.02086,0.1877 0.03128,0.18769 0.02085,0.18769 0.02086,0.1877 v 0 l 0.03128,0.17726 0.03128,0.17727 0.03128,0.16684 0.02086,0.16684 0.03128,0.16684 0.03128,0.16684 0.03128,0.15641 0.02085,0.14598 0.03128,0.15641 0.03128,0.14599 v 0 l 0.03128,0.13555 0.03128,0.13556 0.03128,0.13556 0.03128,0.1147 0.03128,0.1147 0.03128,0.10427 0.03128,0.10428 0.03128,0.0938 0.03128,0.0834 0.04171,0.073 v 0 l -0.02085,-0.54222 v -0.5318 -0.52137 -0.50052 l 0.02085,-0.49009 0.02085,-0.47966 0.02085,-0.4588 0.04171,-0.43795 0.04171,-0.42753 0.04171,-0.4171 v 0 l 0.06256,-0.40666 0.06256,-0.38582 0.07299,-0.36496 0.08342,-0.36496 0.09385,-0.33368 0.104275,-0.33367 0.114701,-0.3024 0.125129,-0.29197 0.125129,-0.28154 0.145984,-0.26068 v 0 l 0.156411,-0.26069 0.166839,-0.2294 0.177266,-0.21898 0.177266,-0.20854 0.198121,-0.1877 0.208549,-0.16684 0.218976,-0.15641 0.229403,-0.14598 0.23983,-0.1147 0.250258,-0.11471 v 0 l 0.271113,-0.0938 0.281541,-0.0834 0.291967,-0.0626 0.302396,-0.0417 0.312822,-0.0313 0.333678,-0.0208 h 0.344104 l 0.354533,0.0208 0.375387,0.0313 0.375387,0.0521 v 0 l 0.177266,0.0104 0.145984,0.0313 0.135556,0.0417 0.114702,0.073 0.104274,0.0834 0.08342,0.10428 0.06256,0.12513 0.04171,0.14598 0.03128,0.15641 0.01043,0.18769 v 0 l -0.01043,0.073 -0.01043,0.0626 -0.03128,0.0626 -0.03128,0.0626 -0.04171,0.0521 -0.06256,0.0521 -0.06256,0.0521 -0.07299,0.0313 -0.08342,0.0417 -0.09385,0.0313 v 0 l -0.09385,0.0209 -0.104274,0.0209 -0.104274,0.0209 -0.104274,0.0208 -0.114702,0.0209 -0.104274,0.0104 -0.114702,0.0208 -0.114701,0.0104 -0.125129,0.0104 -0.114702,0.0209 v 0 h -0.125129 l -0.125129,0.0104 h -0.114702 l -0.125129,0.0104 -0.114701,0.0104 -0.114702,0.0104 -0.125129,0.0104 -0.114701,0.0104 -0.114702,0.0104 -0.114702,0.0104 v 0 l -0.114701,0.0104 -0.104274,0.0209 -0.104275,0.0209 -0.09385,0.0208 -0.08342,0.0313 -0.08342,0.0313 -0.07299,0.0313 -0.07299,0.0313 -0.06256,0.0417 -0.05214,0.0521 v 0 l -0.198121,0.1147 -0.187693,0.13556 -0.187694,0.14598 -0.166838,0.16684 -0.145984,0.16684 -0.145984,0.18769 -0.125129,0.19812 -0.125129,0.21898 -0.104274,0.21897 -0.09385,0.23983 v 0 l -0.07299,0.25026 -0.07299,0.25026 -0.07299,0.27111 -0.06256,0.27112 -0.06257,0.28154 -0.05214,0.29196 -0.05214,0.3024 -0.05214,0.30239 -0.04171,0.32325 -0.03128,0.32325 v 0 l -0.03128,0.33368 -0.03128,0.34411 -0.03128,0.3441 -0.03128,0.35453 -0.03128,0.35454 -0.02085,0.36496 -0.02086,0.37538 -0.02085,0.37539 -0.02086,0.38581 -0.02085,0.38582 v 0 l -0.01043,0.39624 -0.02085,0.38582 -0.03128,0.39624 -0.03128,0.39624 -0.03128,0.39624 -0.04171,0.40667 -0.04171,0.39624 -0.05214,0.40667 -0.05214,0.40667 -0.06256,0.4171 v 0 0.0521 l -0.01043,0.0521 -0.01043,0.0521 -0.02085,0.0521 -0.02085,0.0417 -0.02085,0.0417 -0.03128,0.0417 -0.03128,0.0313 -0.04171,0.0417 -0.04171,0.0209 v 0 l -0.05214,0.0313 -0.05214,0.0209 -0.05214,0.0313 -0.05214,0.0104 -0.05214,0.0209 -0.06256,0.0104 -0.06256,0.0104 -0.06256,0.0104 h -0.06256 -0.07299 v 0 h -0.06256 -0.06256 l -0.06256,-0.0104 -0.06256,-0.0104 -0.07299,-0.0104 -0.06256,-0.0209 -0.06256,-0.0104 -0.06256,-0.0313 -0.06256,-0.0209 -0.06256,-0.0313 v 0 l -0.06256,-0.0209 -0.05214,-0.0417 -0.05214,-0.0313 -0.05214,-0.0417 -0.04171,-0.0417 -0.05214,-0.0417 -0.04171,-0.0521 -0.04171,-0.0521 -0.03128,-0.0521 -0.04171,-0.0521 z"
     style="fill:#011f27;fill-rule:nonzero;stroke:none;stroke-width:0.782056"
     id="path96" /><path
     d="m 65.660468,114.73449 v 0 l -0.02085,-0.14598 -0.03128,-0.16684 -0.03128,-0.15641 -0.02086,-0.17727 -0.03128,-0.17727 -0.02085,-0.17726 -0.03128,-0.18769 -0.02085,-0.19813 -0.02086,-0.19812 -0.03128,-0.20855 v 0 l -0.01043,-0.20854 -0.02085,-0.21898 -0.02085,-0.21898 -0.02085,-0.20854 -0.02085,-0.21898 -0.02086,-0.20855 -0.02085,-0.21897 -0.02085,-0.20855 -0.02085,-0.21898 -0.02085,-0.20855 v 0 l -0.02085,-0.21897 -0.03128,-0.21898 -0.02085,-0.21897 -0.03128,-0.20855 -0.03128,-0.20855 -0.02085,-0.19812 -0.03128,-0.19812 -0.03128,-0.20855 -0.04171,-0.18769 -0.03128,-0.19813 v 0 l -0.03128,-0.18769 -0.03128,-0.17726 -0.04171,-0.17727 -0.04171,-0.16684 -0.04171,-0.15641 -0.05214,-0.15641 -0.05214,-0.14599 -0.05214,-0.13555 -0.05214,-0.13556 -0.06257,-0.12513 v 0 l -0.291967,0.59436 -0.291968,0.56309 -0.271113,0.54222 -0.271113,0.51094 -0.271113,0.49009 -0.250258,0.45881 -0.250258,0.43795 -0.250258,0.40667 -0.229403,0.38582 -0.229403,0.36496 v 0 l -0.229404,0.33367 -0.218975,0.31283 -0.208549,0.29196 -0.208548,0.27112 -0.208549,0.26068 -0.187693,0.23983 -0.198121,0.20855 -0.187694,0.20855 -0.177266,0.17726 -0.177266,0.15642 v 0 l -0.166839,0.13555 -0.156411,0.12513 -0.156411,0.10428 -0.156411,0.0938 -0.135557,0.073 -0.145984,0.0626 -0.135556,0.0521 -0.125129,0.0313 -0.125129,0.0208 H 58.4239 v 0 l -0.114701,-0.0104 -0.114702,-0.0209 -0.104274,-0.0313 -0.104274,-0.0417 -0.09385,-0.0417 -0.09385,-0.0626 -0.09385,-0.0626 -0.08342,-0.073 -0.08342,-0.0834 -0.07299,-0.0939 v 0 l -0.07299,-0.10427 -0.07299,-0.10428 -0.06256,-0.1147 -0.06256,-0.1147 -0.05214,-0.12513 -0.05214,-0.12513 -0.05214,-0.13555 -0.04171,-0.13556 -0.04171,-0.14598 -0.04171,-0.14599 v 0 l -0.02085,-0.15641 -0.03128,-0.14598 -0.02085,-0.15641 -0.03128,-0.14599 -0.02085,-0.14598 -0.01043,-0.14599 -0.02085,-0.13555 -0.02086,-0.14599 -0.01043,-0.13555 -0.01043,-0.13556 v 0 -0.12513 l 0.01043,-0.14598 0.01043,-0.15641 0.02086,-0.16684 0.03128,-0.16684 0.03128,-0.18769 0.03128,-0.19813 0.05214,-0.19812 0.04171,-0.21897 0.06256,-0.22941 v 0 l 0.05214,-0.2294 0.06256,-0.23983 0.07299,-0.23983 0.07299,-0.25026 0.07299,-0.25026 0.08342,-0.25025 0.08342,-0.26069 0.08342,-0.26069 0.09385,-0.27111 0.104275,-0.27111 v 0 l 0.09385,-0.27111 0.104275,-0.28154 0.104274,-0.28154 0.114701,-0.28154 0.114702,-0.28155 0.114702,-0.28154 0.125129,-0.28154 0.125129,-0.28154 0.125129,-0.28154 0.135556,-0.28154 v 0 l 0.135557,-0.28154 0.145983,-0.28154 0.135557,-0.27111 0.145984,-0.26069 0.145984,-0.26068 0.156411,-0.26069 0.145984,-0.25025 0.156411,-0.23984 0.145984,-0.23983 0.156411,-0.2294 v 0 l 0.156411,-0.2294 0.166839,-0.21898 0.156411,-0.21897 0.156412,-0.19812 0.166838,-0.19813 0.156412,-0.18769 0.166838,-0.17727 0.166839,-0.16683 0.166839,-0.16684 0.166839,-0.15641 v 0 l 0.166838,-0.14599 0.166839,-0.12513 0.166839,-0.1147 0.166838,-0.0939 0.177266,-0.0834 0.166839,-0.073 0.166839,-0.0521 0.166839,-0.0313 0.166838,-0.0208 0.166839,-0.0104 v 0 l 0.239831,-0.0313 0.229403,-0.0104 h 0.218976 l 0.208548,0.0313 0.187694,0.0417 0.177266,0.073 0.156411,0.0834 0.145984,0.0938 0.135556,0.12513 0.125129,0.14598 v 0 l 0.114702,0.15642 0.09385,0.16683 0.07299,0.19813 0.05214,0.21897 0.03128,0.2294 0.01043,0.26069 v 0.28154 l -0.03128,0.29197 -0.04171,0.31282 -0.07299,0.34411 v 0 l 0.01043,0.37538 v 0.36496 l 0.01043,0.35453 0.01043,0.34411 0.01043,0.33368 0.01043,0.32325 0.02085,0.31282 0.02086,0.29197 0.03128,0.29196 0.02085,0.28155 v 0 l 0.04171,0.27111 0.03128,0.27111 0.03128,0.26069 0.04171,0.27111 0.03128,0.26068 0.03128,0.26069 0.04171,0.25026 0.03128,0.26068 0.03128,0.25026 0.04171,0.25026 v 0 l 0.04171,0.25026 0.03128,0.25026 0.04171,0.26068 0.03128,0.25026 0.04171,0.26069 0.03128,0.26068 0.03128,0.27111 0.03128,0.26069 0.03128,0.27111 0.03128,0.27111 v 0 l 0.03128,0.28155 0.03128,0.28154 0.03128,0.30239 0.02086,0.31282 0.02085,0.32325 0.01043,0.33368 0.01043,0.34411 0.01043,0.35453 0.01043,0.36496 v 0.37538 0 0.073 l -0.01043,0.0626 v 0.0626 l -0.01043,0.0626 v 0.0626 l -0.01043,0.0626 -0.01043,0.0626 -0.02085,0.0521 -0.01043,0.0521 -0.02085,0.0521 v 0 l -0.01043,0.0521 -0.03128,0.0313 -0.04171,0.0417 -0.05214,0.0313 -0.06256,0.0208 -0.07299,0.0209 -0.09385,0.0208 -0.09385,0.0104 h -0.114701 l -0.114702,0.0104 v 0 l -0.02086,-0.0104 h -0.02085 l -0.02085,-0.0104 -0.02085,-0.0104 -0.02085,-0.0104 -0.02085,-0.0104 -0.03128,-0.0209 -0.02085,-0.0208 -0.03128,-0.0313 -0.03128,-0.0209 v 0 l -0.02086,-0.0313 -0.02085,-0.0313 -0.01043,-0.0209 -0.02085,-0.0313 -0.01043,-0.0209 -0.01043,-0.0208 -0.01043,-0.0209 v -0.0209 l -0.01043,-0.0208 z m -1.564113,-12.95085 v 0 l -0.06256,-0.0834 -0.07299,-0.0626 -0.07299,-0.0521 -0.08342,-0.0313 -0.08342,-0.0208 h -0.08342 l -0.09385,0.0208 -0.104274,0.0313 -0.104275,0.0521 -0.104274,0.0626 v 0 l -0.114701,0.0834 -0.104275,0.0834 -0.114701,0.10427 -0.114702,0.1147 -0.114701,0.1147 -0.114702,0.12513 -0.125129,0.14599 -0.114702,0.14598 -0.125129,0.15641 -0.114701,0.17727 v 0 l -0.125129,0.17726 -0.125129,0.17727 -0.114702,0.19812 -0.125129,0.19812 -0.125129,0.19812 -0.125129,0.21898 -0.125129,0.21897 -0.125129,0.21898 -0.125129,0.23983 -0.135556,0.23983 v 0 l -0.12513,0.23983 -0.125129,0.23983 -0.125129,0.25026 -0.114701,0.23983 -0.125129,0.25026 -0.114702,0.25026 -0.114701,0.23983 -0.114702,0.25026 -0.114702,0.25025 -0.114701,0.25026 v 0 l -0.104274,0.25026 -0.104275,0.23983 -0.104274,0.23983 -0.104274,0.25026 -0.09385,0.2294 -0.09385,0.23983 -0.09385,0.23983 -0.08342,0.22941 -0.08342,0.2294 -0.08342,0.2294 v 0 l -0.08342,0.20855 -0.07299,0.20855 -0.06256,0.20855 -0.06256,0.18769 -0.06256,0.1877 -0.05214,0.17726 -0.05214,0.17727 -0.04171,0.15641 -0.03128,0.15641 -0.03128,0.15641 v 0 0.19812 l 0.01043,0.17727 0.02086,0.16684 0.02085,0.14598 0.03128,0.12513 0.03128,0.1147 0.04171,0.0939 0.04171,0.073 0.06256,0.0521 0.05214,0.0417 v 0 l 0.07299,0.0104 0.06256,0.0104 0.07299,-0.0104 0.07299,-0.0104 0.07299,-0.0313 0.08342,-0.0417 0.08342,-0.0521 0.08342,-0.0626 0.09385,-0.073 0.08342,-0.0938 v 0 l 0.09385,-0.0939 0.104274,-0.10428 0.09385,-0.1147 0.104274,-0.12513 0.104275,-0.12513 0.104274,-0.13555 0.104274,-0.14599 0.114701,-0.15641 0.114702,-0.15641 0.114702,-0.17726 v 0 l 0.114701,-0.16684 0.125129,-0.17727 0.114702,-0.18769 0.114702,-0.17727 0.114701,-0.18769 0.125129,-0.1877 0.104274,-0.18769 0.114702,-0.18769 0.114702,-0.19812 0.114701,-0.1877 v 0 l 0.114702,-0.19812 0.114701,-0.19812 0.104275,-0.19812 0.114701,-0.18769 0.104274,-0.1877 0.104275,-0.19812 0.104274,-0.18769 0.104274,-0.1877 0.104274,-0.18769 0.09385,-0.18769 v 0 l 0.104274,-0.17727 0.104274,-0.17726 0.08342,-0.16684 0.09385,-0.16684 0.08342,-0.14599 0.07299,-0.14598 0.08342,-0.14598 0.06256,-0.13556 0.06256,-0.12513 0.06256,-0.1147 v 0 l 0.05214,-0.12513 0.05214,-0.1147 0.04171,-0.12513 0.04171,-0.1147 0.04171,-0.1147 0.04171,-0.10428 0.04171,-0.1147 0.03128,-0.10427 0.03128,-0.11471 0.03128,-0.10427 v 0 l 0.03128,-0.10427 0.02086,-0.0939 0.03128,-0.10427 0.02086,-0.10428 0.03128,-0.0939 0.02085,-0.10427 0.02086,-0.0939 0.02085,-0.0938 0.02085,-0.0939 0.01043,-0.0939 v 0 l 0.03128,-0.10427 0.01043,-0.0938 0.02085,-0.0938 0.02085,-0.10428 0.01043,-0.0939 0.01043,-0.10427 0.01043,-0.0939 v -0.10427 -0.0938 l 0.01043,-0.10427 v 0 -0.0938 l 0.01043,-0.10427 v -0.0939 -0.10427 l 0.01043,-0.10428 v -0.10427 -0.10428 -0.1147 -0.10427 z"
     style="fill:#011f27;fill-rule:nonzero;stroke:none;stroke-width:0.782056"
     id="path97" /><path
     d="m 68.298605,108.83257 v 0 l 0.02085,-0.21897 0.02085,-0.20855 0.01043,-0.21898 0.02085,-0.21897 0.02085,-0.22941 0.01043,-0.21897 0.02085,-0.23983 0.02085,-0.22941 0.01043,-0.23983 0.02085,-0.23983 v 0 l 0.02085,-0.25026 0.02085,-0.25025 0.02085,-0.25026 0.02085,-0.23983 0.02086,-0.25026 0.03128,-0.25026 0.03128,-0.23983 0.03128,-0.25026 0.03128,-0.23983 0.03128,-0.23983 v 0 l 0.04171,-0.25026 0.04171,-0.23983 0.04171,-0.2294 0.05214,-0.23983 0.04171,-0.2294 0.05214,-0.22941 0.05214,-0.2294 0.05214,-0.2294 0.06256,-0.21898 0.05214,-0.2294 v 0 l 0.06257,-0.20855 0.07299,-0.21898 0.07299,-0.20855 0.07299,-0.19812 0.08342,-0.19812 0.08342,-0.18769 0.08342,-0.1877 0.09385,-0.18769 0.09385,-0.16684 0.09385,-0.17726 v 0 l 0.104274,-0.16684 0.114702,-0.16684 0.114701,-0.15641 0.114702,-0.14599 0.125129,-0.13555 0.135556,-0.13556 0.135557,-0.12513 0.135556,-0.1147 0.145984,-0.1147 0.145984,-0.0939 v 0 l 0.156411,-0.10427 0.156412,-0.0834 0.166838,-0.0834 0.177266,-0.0626 0.177267,-0.0521 0.187693,-0.0417 0.187694,-0.0417 0.198121,-0.0209 0.208548,-0.0104 h 0.208548 v 0 l 0.145984,0.0104 0.135557,0.0209 0.125129,0.0313 0.114701,0.0417 0.114702,0.0521 0.114702,0.0626 0.09385,0.0834 0.09385,0.0939 0.08342,0.10427 0.08342,0.1147 v 0 l 0.07299,0.12513 0.07299,0.12513 0.07299,0.13556 0.06256,0.13555 0.05214,0.14599 0.05214,0.15641 0.05214,0.15641 0.04171,0.15641 0.04171,0.16684 0.03128,0.16684 v 0 l 0.03128,0.17727 0.03128,0.17726 0.02085,0.17727 0.02085,0.17726 0.02085,0.17727 0.02086,0.17727 0.01043,0.18769 0.01043,0.17727 v 0.18769 0.18769 0 l 0.01043,0.17727 v 0.16684 l 0.01043,0.16684 v 0.15641 0.14598 l 0.01043,0.14599 v 0.13555 0.13556 0.12513 0.1147 0 h -0.114702 l -0.104274,-0.0104 -0.114701,-0.0313 -0.09385,-0.0313 -0.104274,-0.0417 -0.09385,-0.0626 -0.08342,-0.0626 -0.08342,-0.073 -0.08342,-0.0834 -0.08342,-0.0939 v 0 l -0.07299,-0.10427 -0.06256,-0.10428 -0.07299,-0.1147 -0.06257,-0.1147 -0.06256,-0.1147 -0.05214,-0.12513 -0.05214,-0.12513 -0.05214,-0.12513 -0.04171,-0.12513 -0.04171,-0.13556 v 0 l -0.04171,-0.12512 -0.04171,-0.13556 -0.03128,-0.13556 -0.03128,-0.12513 -0.03128,-0.13555 -0.03128,-0.12513 -0.02085,-0.13556 -0.02085,-0.12513 -0.02085,-0.13555 -0.02085,-0.12513 -0.08342,-0.8342 v 0 h -0.01043 -0.01043 -0.01043 v 0 h -0.02085 -0.01043 -0.01043 -0.01043 -0.02085 -0.01043 v 0 l -0.02086,-0.0104 h -0.01043 l -0.01043,-0.0104 v 0 h -0.01043 l -0.01043,-0.0104 h -0.01043 -0.01043 v 0 h -0.01043 v 0 h -0.09385 l -0.09385,0.0209 -0.104274,0.0313 -0.09385,0.0313 -0.09385,0.0521 -0.08342,0.0626 -0.09385,0.073 -0.09385,0.0834 -0.08342,0.0939 -0.09385,0.10427 v 0 l -0.07299,0.11471 -0.08342,0.1147 -0.08342,0.12513 -0.07299,0.13555 -0.08342,0.13556 -0.07299,0.14598 -0.08342,0.15642 -0.07299,0.15641 -0.07299,0.15641 -0.08342,0.17726 v 0 l -0.06256,0.16684 -0.07299,0.17727 -0.06256,0.17726 -0.06256,0.1877 -0.06256,0.18769 -0.06256,0.19812 -0.05214,0.19812 -0.06257,0.19812 -0.05214,0.20855 -0.05214,0.20855 v 0 l -0.05214,0.20855 -0.05214,0.20855 -0.04171,0.20855 -0.05214,0.20855 -0.04171,0.20854 -0.04171,0.19812 -0.04171,0.20855 -0.04171,0.19812 -0.03128,0.20855 -0.04171,0.19812 v 0 l -0.03128,0.20855 -0.03128,0.19812 -0.03128,0.19812 -0.03128,0.1877 -0.03128,0.18769 -0.03128,0.18769 -0.02085,0.1877 -0.03128,0.17726 -0.02085,0.17727 -0.03128,0.17727 v 0 l -0.01043,0.16683 -0.02085,0.15642 -0.01043,0.14598 -0.01043,0.14598 -0.01043,0.13556 -0.01043,0.12513 v 0.1147 l -0.01043,0.1147 v 0.10428 0.0938 0 l -0.01043,0.15641 -0.01043,0.15642 v 0.15641 l -0.01043,0.15641 v 0.16684 0.16684 l 0.01043,0.16683 v 0.17727 l 0.01043,0.16684 0.01043,0.18769 v 0 l 0.01043,0.17727 0.02085,0.17727 0.02085,0.16683 0.03128,0.17727 0.03128,0.16684 0.04171,0.16684 0.04171,0.16684 0.04171,0.15641 0.05214,0.16684 0.05214,0.15641 v 0 l 0.06257,0.14598 0.06256,0.15641 0.07299,0.14599 0.07299,0.14598 0.08342,0.13556 0.08342,0.13555 0.08342,0.12513 0.09385,0.12513 0.09385,0.12513 0.104275,0.1147 v 0 l 0.114701,0.10428 0.114702,0.10427 0.114701,0.0939 0.135557,0.0834 0.135556,0.0834 0.135557,0.073 0.156411,0.0626 0.156411,0.0521 0.156412,0.0521 0.177266,0.0521 v 0 l 0.208548,-0.0104 0.198121,-0.0104 0.198121,-0.0104 0.187694,-0.0208 0.177266,-0.0209 0.166838,-0.0313 0.156412,-0.0417 0.156411,-0.0417 0.145984,-0.0521 0.135556,-0.0521 v 0 l 0.135557,-0.0626 0.125129,-0.0626 0.114701,-0.073 0.114702,-0.073 0.114702,-0.073 0.104274,-0.0834 0.104274,-0.0834 0.09385,-0.0834 0.08342,-0.0938 0.08342,-0.0939 v 0 l 0.08342,-0.10427 0.08342,-0.10428 0.07299,-0.10427 0.07299,-0.10428 0.07299,-0.10427 0.06257,-0.1147 0.06256,-0.1147 0.05214,-0.11471 0.05214,-0.1147 0.05214,-0.12513 v 0 l 0.04171,-0.12513 0.05214,-0.1147 0.04171,-0.12513 0.04171,-0.12513 0.05214,-0.12512 0.04171,-0.12513 0.04171,-0.12513 0.04171,-0.12513 0.04171,-0.12513 0.04171,-0.12513 v 0 l 0.04171,-0.13556 0.05214,-0.13555 0.04171,-0.12513 0.05214,-0.13556 0.04171,-0.13555 0.04171,-0.12513 0.05214,-0.12513 0.04171,-0.13556 0.05214,-0.12513 0.04171,-0.12513 v 0 l 0.05214,-0.13555 0.05214,-0.12513 0.05214,-0.1147 0.06256,-0.12513 0.06257,-0.11471 0.07299,-0.12512 0.07299,-0.11471 0.07299,-0.1147 0.08342,-0.1147 0.08342,-0.10427 v 0 l 0.07299,-0.0209 0.06257,-0.0104 0.05214,-0.0104 h 0.06256 0.05214 l 0.04171,0.0104 0.04171,0.0104 0.04171,0.0104 0.03128,0.0104 0.03128,0.0208 v 0 l 0.04171,0.0209 0.03128,0.0208 0.02086,0.0209 0.03128,0.0208 0.02086,0.0313 0.02085,0.0209 0.02085,0.0313 0.02085,0.0313 0.01043,0.0313 0.02085,0.0313 v 0 l 0.01043,0.0417 0.01043,0.0313 v 0.0417 l 0.01043,0.0417 0.01043,0.0417 v 0.0313 l 0.01043,0.0521 v 0.0417 0.0417 0.0417 0.32325 0 0.23983 l -0.01043,0.23983 -0.02085,0.23983 -0.03128,0.23983 -0.04171,0.23983 -0.04171,0.2294 -0.05214,0.22941 -0.06257,0.2294 -0.06256,0.2294 -0.08342,0.22941 v 0 l -0.08342,0.21897 -0.09385,0.21898 -0.09385,0.21897 -0.114701,0.20855 -0.114702,0.20855 -0.114701,0.19812 -0.135557,0.19812 -0.135556,0.1877 -0.145984,0.18769 -0.156411,0.17727 v 0 l -0.156412,0.17726 -0.166838,0.16684 -0.166839,0.15641 -0.187694,0.14599 -0.177266,0.14598 -0.198121,0.14598 -0.198121,0.12513 -0.198121,0.12513 -0.208548,0.12513 -0.218976,0.1147 v 0 l -0.218976,0.0939 -0.229403,0.0938 -0.229403,0.073 -0.229403,0.073 -0.250258,0.0521 -0.250258,0.0521 -0.250259,0.0313 -0.260685,0.0313 -0.271113,0.0104 -0.271113,0.0104 v 0 l -0.229403,-0.0104 -0.229403,-0.0209 -0.208549,-0.0417 -0.208548,-0.0417 -0.198121,-0.073 -0.187693,-0.073 -0.177267,-0.0938 -0.177266,-0.1147 -0.166838,-0.12513 -0.166839,-0.13556 v 0 l -0.145984,-0.15641 -0.135556,-0.15641 -0.135557,-0.16684 -0.135556,-0.16684 -0.114702,-0.17726 -0.114702,-0.17727 -0.114701,-0.19812 -0.104274,-0.18769 -0.09385,-0.19812 -0.09385,-0.20855 v 0 l -0.07299,-0.20855 -0.07299,-0.20855 -0.07299,-0.21898 -0.06256,-0.20854 -0.06256,-0.21898 -0.05214,-0.21898 -0.05214,-0.21897 -0.05214,-0.21898 -0.04171,-0.2294 -0.03128,-0.21898 v 0 l -0.03128,-0.2294 -0.03128,-0.2294 -0.03128,-0.20855 -0.02086,-0.20855 -0.02085,-0.19812 -0.01043,-0.19812 -0.01043,-0.18769 -0.01043,-0.17727 -0.01043,-0.17727 z"
     style="fill:#011f27;fill-rule:nonzero;stroke:none;stroke-width:0.782056"
     id="path98" /><path
     d="m 80.728088,93.24358 v 0 l 0.125129,-0.114701 0.114702,-0.09385 0.104274,-0.08342 0.104274,-0.06257 0.09385,-0.05214 0.09385,-0.04171 0.09385,-0.02085 0.08342,-0.02085 0.07299,0.01043 0.07299,0.01043 v 0 l 0.07299,0.03128 0.07299,0.04171 0.06256,0.05214 0.06257,0.06256 0.05214,0.07299 0.05214,0.08342 0.05214,0.09385 0.04171,0.104274 0.04171,0.114702 0.04171,0.125129 v 0 l 0.03128,0.135556 0.03128,0.145984 0.02085,0.156411 0.03128,0.166839 0.02085,0.166839 0.02085,0.177266 0.01043,0.187693 0.01043,0.187694 0.01043,0.208548 0.01043,0.208549 v 0 l 0.01043,0.218977 v 0.21897 0.22941 0.23983 0.23983 l -0.01043,0.23983 v 0.26068 l -0.01043,0.25026 -0.01043,0.27111 -0.01043,0.26069 v 0 0.27111 l -0.01043,0.27112 -0.01043,0.28154 -0.01043,0.27111 -0.02085,0.28154 -0.01043,0.29197 -0.02085,0.28154 -0.01043,0.30239 -0.02086,0.29197 -0.03128,0.3024 v 0 l -0.02086,0.29196 -0.02085,0.29197 -0.02085,0.29197 -0.02085,0.30239 -0.02085,0.29197 -0.02085,0.29197 -0.02085,0.29197 -0.02086,0.29197 -0.01043,0.29196 -0.02085,0.28154 v 0 l -0.02086,0.28154 -0.01043,0.28154 -0.01043,0.28154 -0.02085,0.27112 -0.01043,0.28154 -0.01043,0.27111 -0.01043,0.26069 -0.01043,0.27111 v 0.26068 l -0.01043,0.27112 v 0 l -0.01043,0.25025 v 0.25026 0.25026 l 0.01043,0.2294 0.01043,0.22941 0.01043,0.2294 0.01043,0.20855 0.01043,0.20855 0.02085,0.20855 0.02085,0.18769 h 0.09385 v 0 h 0.01043 0.01043 0.01043 0.01043 v 0 l 0.01043,-0.0104 h 0.01043 l 0.01043,-0.0104 v 0 l 0.01043,-0.0104 v 0 l 0.291968,-0.3024 0.291967,-0.30239 0.291968,-0.31283 0.28154,-0.31282 0.271113,-0.31282 0.260686,-0.32325 0.260685,-0.32325 0.260686,-0.32325 0.23983,-0.33368 0.239831,-0.33368 v 0 l 0.239831,-0.33367 0.229403,-0.33368 0.229403,-0.32325 0.218976,-0.32325 0.218976,-0.31282 0.208548,-0.32325 0.208548,-0.3024 0.198121,-0.31282 0.198121,-0.3024 0.198121,-0.29196 v 0 l 0.187694,-0.3024 0.187693,-0.28154 0.177266,-0.28154 0.177267,-0.27111 0.166838,-0.27112 0.166839,-0.25025 0.156411,-0.25026 0.156412,-0.23983 0.156411,-0.23983 0.145984,-0.21898 v 0 l 0.145984,-0.21897 0.156411,-0.19813 0.135556,-0.17726 0.145984,-0.17727 0.145984,-0.15641 0.135557,-0.14598 0.135556,-0.12513 0.135556,-0.1147 0.125129,-0.10428 0.125129,-0.0938 v 0 l 0.09385,0.0104 h 0.08342 l 0.07299,0.0104 0.08342,0.0104 0.07299,0.0104 0.06256,0.0104 0.07299,0.0209 0.06257,0.0208 0.06256,0.0313 0.06257,0.0209 v 0 l 0.06256,0.0313 0.05214,0.0417 0.05214,0.0521 0.03128,0.0521 0.04171,0.0626 0.03128,0.073 0.02085,0.073 0.01043,0.0939 0.01043,0.0939 v 0.0938 0 0.0104 0.0209 0.0104 0.0209 0.0208 l -0.01043,0.0209 v 0.0209 0.0209 l -0.01043,0.0313 v 0.0313 0 0.0209 0.0208 0.0209 0.0208 0.0104 0.0209 0.0104 0.0209 0.0104 0.0104 0 l -0.145984,0.3024 -0.156412,0.29196 -0.145983,0.3024 -0.156412,0.29197 -0.156411,0.30239 -0.166839,0.29197 -0.156411,0.3024 -0.166839,0.30239 -0.177266,0.3024 -0.166839,0.30239 v 0 l -0.177266,0.29197 -0.177266,0.29197 -0.177266,0.29196 -0.187693,0.29197 -0.187694,0.28154 -0.187694,0.29197 -0.198121,0.28154 -0.187693,0.28154 -0.198121,0.28154 -0.208548,0.28154 v 0 l -0.198121,0.27111 -0.208549,0.27112 -0.218976,0.27111 -0.208548,0.27111 -0.218976,0.26069 -0.218976,0.27111 -0.229403,0.26069 -0.229403,0.25025 -0.229403,0.25026 -0.239831,0.25026 v 0 l -0.229403,0.25026 -0.239831,0.23983 -0.23983,0.23983 -0.250258,0.2294 -0.250258,0.22941 -0.250258,0.2294 -0.260686,0.21898 -0.260685,0.20854 -0.271113,0.21898 -0.271113,0.19812 v 0 0.0104 0.0104 0 0.0104 0.0104 l -0.01043,0.0209 v 0.0104 0.0104 l -0.01043,0.0208 v 0.0104 0 0.0104 0.0104 0.0104 0.0104 0.0104 0.0104 0.0104 0 0.0104 0.0104 0 0.0521 l 0.01043,0.0626 0.03128,0.0626 0.03128,0.0626 0.04171,0.0626 0.05214,0.0626 0.05214,0.0626 0.07299,0.073 0.08342,0.0626 0.08342,0.073 v 0 l 0.104275,0.0626 0.104274,0.073 0.104274,0.073 0.114702,0.0626 0.125129,0.0626 0.125129,0.073 0.125129,0.0626 0.135556,0.0626 0.135557,0.073 0.145983,0.0626 v 0 l 0.145984,0.0626 0.156412,0.0626 0.156411,0.0626 0.166839,0.0626 0.156411,0.0626 0.166839,0.0626 0.177266,0.0626 0.166838,0.073 0.177266,0.0626 0.177267,0.0626 v 0 l 0.187693,0.0626 0.177266,0.0626 0.187694,0.0521 0.177266,0.0626 0.187693,0.0521 0.177267,0.0521 0.177266,0.0521 0.177266,0.0521 0.177266,0.0521 0.166839,0.0521 v 0 l 0.177266,0.0417 0.177266,0.0417 0.177266,0.0417 0.166839,0.0417 0.166838,0.0417 0.166839,0.0313 0.156411,0.0417 0.156412,0.0313 0.156411,0.0313 0.156411,0.0313 v 0 l 0.145984,0.0209 0.145984,0.0313 0.145984,0.0208 0.125129,0.0209 0.125129,0.0104 0.125129,0.0104 0.104274,0.0104 0.104274,0.0104 h 0.104275 l 0.08342,0.0104 v 0 0.0209 0.0313 0.0313 0.0417 0.0417 0.0417 0.0521 0.0521 0.0521 0.0626 0 l 0.01043,0.0626 v 0.073 0.0626 0.0626 0.073 0.0626 l -0.01043,0.0626 v 0.073 l -0.01043,0.073 -0.01043,0.0626 v 0 l -0.01043,0.073 -0.02085,0.0626 -0.01043,0.073 -0.02085,0.0626 -0.02085,0.0626 -0.02086,0.0626 -0.02085,0.0626 -0.03128,0.0626 -0.02086,0.0626 -0.03128,0.0521 v 0 l -0.03128,0.0521 -0.03128,0.0417 -0.04171,0.0417 -0.04171,0.0313 -0.04171,0.0313 -0.04171,0.0208 -0.05214,0.0209 -0.06256,0.0104 -0.05214,0.0104 h -0.06257 -0.114701 v 0 h -0.01043 -0.01043 -0.01043 -0.01043 -0.01043 l -0.01043,-0.0104 h -0.01043 v 0 l -0.01043,-0.0104 h -0.01043 l -8.279371,-3.33678 v 0 l -0.01043,0.33368 -0.01043,0.32325 -0.01043,0.31282 -0.02085,0.29197 -0.02085,0.29197 -0.03128,0.27111 -0.02085,0.26069 -0.03128,0.23983 -0.04171,0.23983 -0.04171,0.21897 v 0 l -0.04171,0.19812 -0.04171,0.19812 -0.04171,0.17727 -0.04171,0.16684 -0.05214,0.16684 -0.05214,0.14598 -0.05214,0.13556 -0.05214,0.12513 -0.05214,0.1147 -0.06256,0.10427 v 0 l -0.05214,0.0939 -0.05214,0.0939 -0.05214,0.073 -0.06257,0.073 -0.05214,0.0521 -0.06256,0.0417 -0.06256,0.0313 -0.05214,0.0209 -0.06256,0.0104 h -0.06256 v 0 l -0.06257,-0.0104 -0.05214,-0.0104 -0.06256,-0.0313 -0.05214,-0.0313 -0.05214,-0.0417 -0.05214,-0.0521 -0.05214,-0.0626 -0.04171,-0.0626 -0.05214,-0.073 -0.04171,-0.0834 z"
     style="fill:#011f27;fill-rule:nonzero;stroke:none;stroke-width:0.782056"
     id="path99" /><path
     d="m 35.963179,97.3207 v 0 l -0.187694,0.0104 h -0.177266 l -0.187694,0.0104 -0.187693,0.0104 -0.187694,0.0209 -0.187693,0.0104 -0.198121,0.0313 -0.187694,0.0208 -0.187693,0.0313 -0.187694,0.0313 v 0 l -0.187693,0.0417 -0.187694,0.0313 -0.187693,0.0417 -0.177267,0.0313 -0.187693,0.0417 -0.187694,0.0417 -0.187693,0.0417 -0.187694,0.0417 -0.177266,0.0521 -0.187693,0.0417 v 0 l -0.187694,0.0417 -0.187693,0.0417 -0.187694,0.0313 -0.177266,0.0417 -0.187694,0.0417 -0.187693,0.0313 -0.187694,0.0417 -0.177266,0.0313 -0.187693,0.0417 -0.187694,0.0313 v 0 l -0.187694,0.0313 -0.187693,0.0313 -0.187694,0.0313 -0.187693,0.0209 -0.187694,0.0208 -0.187693,0.0104 -0.187694,0.0104 -0.187693,0.0104 -0.187694,0.0104 h -0.198121 v 0 h -0.05214 -0.06256 l -0.06256,-0.0104 h -0.05214 l -0.06256,-0.0104 h -0.06256 l -0.06256,-0.0104 -0.06256,-0.0104 -0.06257,-0.0104 -0.06256,-0.0104 v 0 l -0.05214,-0.0209 -0.05214,-0.0209 -0.04171,-0.0417 -0.04171,-0.0417 -0.03128,-0.0417 -0.02085,-0.0626 -0.02086,-0.0626 -0.02085,-0.0626 v -0.0834 l -0.01043,-0.0834 v 0 -0.0521 l 0.01043,-0.0626 0.01043,-0.0521 0.02086,-0.0626 0.02085,-0.0626 0.02085,-0.0521 0.03128,-0.0626 0.03128,-0.0521 0.04171,-0.0626 0.04171,-0.0521 v 0 l 0.06256,-0.0626 0.05214,-0.0521 0.05214,-0.0521 0.05214,-0.0417 0.05214,-0.0417 0.06256,-0.0313 0.05214,-0.0209 0.05214,-0.0208 0.06256,-0.0209 0.05214,-0.0104 7.768427,-1.12616 v 0 l 0.01043,-0.0208 v -0.0313 l 0.01043,-0.0313 0.01043,-0.0313 v -0.0313 l 0.01043,-0.0313 0.01043,-0.0417 0.01043,-0.0417 0.01043,-0.0417 0.01043,-0.0417 v 0 l 0.01043,-0.0521 0.02085,-0.0521 0.01043,-0.05213 0.01043,-0.05214 0.02086,-0.05214 0.01043,-0.04171 0.01043,-0.05214 0.02085,-0.05214 0.02086,-0.04171 0.01043,-0.05214 v 0 l 0.02085,-0.04171 0.03128,-0.05214 0.02085,-0.05214 0.03128,-0.04171 0.03128,-0.05214 0.03128,-0.04171 0.02085,-0.04171 0.04171,-0.03128 0.03128,-0.04171 0.03128,-0.03128 v 0 l 0.03128,-0.04171 0.04171,-0.03128 0.03128,-0.03128 0.04171,-0.03128 0.04171,-0.02086 0.04171,-0.02085 0.04171,-0.01043 0.04171,-0.01043 0.04171,-0.01043 h 0.05214 v 0 h 0.06256 l 0.07299,0.01043 0.06256,0.01043 0.05214,0.01043 0.06256,0.01043 0.05214,0.02085 0.05214,0.02085 0.04171,0.03128 0.05214,0.03128 0.04171,0.03128 v 0 l 0.03128,0.03128 0.04171,0.04171 0.04171,0.03128 0.03128,0.04171 0.04171,0.04171 0.03128,0.04171 0.03128,0.04171 0.03128,0.04171 0.03128,0.04171 0.03128,0.05214 v 0 l 0.03128,0.04171 0.02085,0.04171 0.03128,0.03128 0.03128,0.04171 0.02085,0.04171 0.03128,0.03128 0.02085,0.04171 0.02085,0.03128 0.03128,0.04171 0.02085,0.03128 v 0 l 0.02085,0.03128 0.03128,0.0313 0.02085,0.0208 0.03128,0.0313 0.03128,0.0104 0.02086,0.0209 0.03128,0.0104 0.03128,0.0104 h 0.04171 l 0.03128,0.0104 h 0.229403 v 0 l 0.06256,-0.0104 0.06256,-0.0104 h 0.08342 l 0.08342,-0.0104 0.08342,-0.0104 0.09385,-0.0104 0.104275,-0.0104 0.114701,-0.0104 0.114702,-0.0104 0.125129,-0.0104 v 0 l 0.125129,-0.0104 0.135556,-0.0208 0.135557,-0.0209 0.145984,-0.01042 0.135556,-0.02085 0.145984,-0.02086 0.156411,-0.01043 0.145984,-0.02085 0.156411,-0.02085 0.166839,-0.01043 v 0 l 0.166839,-0.02085 0.166838,-0.02085 0.177267,-0.01043 0.177266,-0.02085 0.177266,-0.02085 0.177266,-0.01043 0.177266,-0.02085 0.177266,-0.02085 0.187694,-0.01043 0.177266,-0.02085 v 0 l 0.187693,-0.02085 0.187694,-0.02085 0.177266,-0.02085 0.177266,-0.02085 0.177266,-0.02086 0.177266,-0.01043 0.177267,-0.02085 0.166838,-0.01043 0.177266,-0.02085 0.166839,-0.01043 v 0 l 0.166839,-0.01043 0.156411,-0.02085 0.156411,-0.01043 0.156412,-0.02085 0.156411,-0.01043 0.145984,-0.02085 0.135556,-0.01043 0.135557,-0.01043 0.135556,-0.01043 0.135557,-0.02085 v 0 l 0.114701,-0.01043 0.125129,-0.02085 0.104274,-0.01043 0.104275,-0.02085 0.09385,-0.01043 0.09385,-0.02085 0.08342,-0.01043 0.07299,-0.01043 0.07299,-0.01043 0.05214,-0.01043 v 0 h 0.02086 0.03128 0.02085 0.04171 0.03128 0.04171 0.05214 0.05214 0.05214 0.06256 v 0 l 0.07299,-0.01043 h 0.06256 l 0.06257,-0.01043 h 0.05214 l 0.05214,-0.01043 h 0.04171 0.05214 0.03128 0.04171 0.03128 v 0 l -0.01043,0.104274 -0.02085,0.104274 -0.03128,0.104274 -0.04171,0.09385 -0.05214,0.09385 -0.06256,0.09385 -0.08342,0.08342 -0.09385,0.09385 -0.104274,0.07299 -0.114702,0.0834 v 0 l -0.114701,0.0626 -0.125129,0.073 -0.135557,0.0626 -0.145984,0.0626 -0.145984,0.0626 -0.145984,0.0626 -0.166838,0.0521 -0.166839,0.0626 -0.177266,0.0521 -0.177266,0.0521 v 0 l -0.187694,0.0417 -0.187693,0.0521 -0.187694,0.0417 -0.198121,0.0313 -0.198121,0.0417 -0.208548,0.0417 -0.208548,0.0313 -0.208549,0.0313 -0.218976,0.0313 -0.229403,0.0313 v 0 l -0.218976,0.0208 -0.218975,0.0208 -0.218976,0.0313 -0.218976,0.0208 -0.218976,0.0209 -0.208548,0.0104 -0.218976,0.0209 -0.218976,0.0208 -0.218976,0.0209 -0.208548,0.0209 v 0 l -0.208548,0.0104 -0.208549,0.0209 -0.198121,0.0104 -0.198121,0.0209 -0.198121,0.0104 -0.187693,0.0208 -0.187694,0.0104 -0.187693,0.0104 -0.187694,0.0104 -0.177266,0.0104 v 0 l -0.177266,0.0208 -0.156411,0.0104 -0.156412,0.0104 -0.145984,0.0104 -0.135556,0.0208 -0.125129,0.0104 -0.125129,0.0209 -0.114702,0.0104 -0.104274,0.0209 -0.09385,0.0104 v 0 l -0.02085,0.4171 -0.01043,0.4171 -0.01043,0.41709 v 0.42753 0.42752 l 0.02085,0.42753 0.01043,0.43795 0.03128,0.437948 0.03128,0.43795 0.03128,0.44838 v 0 l 0.05214,0.43795 0.04171,0.44838 0.05214,0.44838 0.05214,0.44838 0.06256,0.44838 0.05214,0.44838 0.05214,0.44838 0.06256,0.4588 0.06256,0.44838 0.06256,0.44838 v 0 l 0.07299,0.45881 0.06256,0.44838 0.07299,0.44838 0.06256,0.44837 0.06256,0.44838 0.06256,0.44838 0.06256,0.44838 0.06256,0.44838 0.06256,0.44838 0.05214,0.44838 v 0 l 0.05214,0.44838 0.05214,0.43795 0.04171,0.43795 0.04171,0.42752 0.03128,0.42753 0.02086,0.42752 0.02085,0.4171 0.02085,0.4171 0.01043,0.40667 v 0.40667 0 l 0.02086,0.0834 0.02085,0.073 0.01043,0.073 0.02085,0.073 0.01043,0.0626 v 0.0626 l 0.01043,0.0626 v 0.0521 0.0521 l -0.01043,0.0521 v 0 0.0417 0.0417 l -0.01043,0.0417 -0.01043,0.0313 -0.01043,0.0313 -0.02085,0.0313 -0.02085,0.0313 -0.02086,0.0209 -0.02085,0.0208 -0.03128,0.0209 v 0 l -0.03128,0.0208 -0.03128,0.0104 -0.03128,0.0104 -0.04171,0.0104 -0.04171,0.0104 -0.04171,0.0104 -0.05214,0.0104 h -0.05214 -0.05214 -0.05214 v 0 h -0.06256 -0.06256 -0.06257 -0.06256 -0.07299 l -0.07299,-0.0104 h -0.07299 -0.07299 l -0.07299,-0.0104 h -0.08342 v 0 l -0.05214,-0.21897 -0.06256,-0.21898 -0.05214,-0.21898 -0.05214,-0.23983 -0.05214,-0.23983 -0.05214,-0.23983 -0.05214,-0.26068 -0.05214,-0.26069 -0.04171,-0.26068 -0.05214,-0.28154 v 0 l -0.04171,-0.28154 -0.04171,-0.29197 -0.03128,-0.29197 -0.04171,-0.29197 -0.04171,-0.30239 -0.03128,-0.3024 -0.04171,-0.31282 -0.03128,-0.3024 -0.04171,-0.31282 -0.03128,-0.32325 v 0 l -0.03128,-0.32325 -0.04171,-0.32325 -0.03128,-0.33368 -0.03128,-0.33367 -0.04171,-0.32325 -0.03128,-0.33368 -0.03128,-0.3441 -0.04171,-0.33368 -0.03128,-0.34411 -0.03128,-0.33367 v 0 l -0.03128,-0.34411 -0.03128,-0.3441 -0.03128,-0.33368 -0.03128,-0.34411 -0.02086,-0.33367 -0.03128,-0.34411 -0.03128,-0.33368 -0.03128,-0.3441 -0.02085,-0.33368 -0.03128,-0.33368 v 0 l -0.03128,-0.33367 -0.03128,-0.33368 -0.03128,-0.33368 -0.03128,-0.32325 -0.03128,-0.32325 -0.03128,-0.32325 -0.03128,-0.31282 -0.03128,-0.31282 -0.04171,-0.31283 -0.03128,-0.31282 v 0 l -0.03128,-0.302388 -0.04171,-0.3024 -0.03128,-0.29197 -0.04171,-0.28154 -0.04171,-0.28154 -0.04171,-0.27111 -0.04171,-0.27111 -0.04171,-0.27112 -0.04171,-0.25025 -0.05214,-0.26069 z"
     style="fill:#011f27;fill-rule:nonzero;stroke:none;stroke-width:0.782056"
     id="path95" /><path
     style="fill:none;fill-opacity:1;stroke:#09262d;stroke-width:0.551671;stroke-linecap:round;stroke-linejoin:round;stroke-dasharray:none;stroke-opacity:1"
     d="M 60.323251,56.176987 45.380497,72.568485 66.023955,82.242153 60.496,58.729762 l 13.733512,8.598817 -22.630066,16.391498 7.60094,-23.24368"
     id="path143" /><ellipse
     style="fill:#800000;fill-opacity:1;stroke:#626074;stroke-width:0.199309;stroke-dasharray:none;stroke-opacity:1"
     id="path133-7"
     cx="60.597588"
     cy="55.223515"
     rx="5.2709613"
     ry="5.5132613" /><path
     style="fill:none;fill-opacity:1;stroke:#09262d;stroke-width:8.68819;stroke-linecap:round;stroke-linejoin:round;stroke-dasharray:none;stroke-opacity:1"
     d="m 654.7844,5.0784727 c -9.14124,2.9342256 -18.28249,5.8684543 -26.29526,9.7619983 -8.01277,3.893543 -14.89679,8.746213 -20.03172,13.260451 -5.13493,4.514237 -8.52052,8.689791 -11.90617,12.865424"
     id="path142"
     transform="matrix(0.18039634,0,0,0.2806092,-63.79483,53.198093)"
     inkscape:original-d="m 654.7844,5.0784727 c -9.14124,2.9342288 -18.28249,5.8684573 -27.42375,8.8026853 -6.88428,4.85286 -13.7683,9.705526 -20.65245,14.558289 -3.38571,4.175716 -6.7713,8.351266 -10.15695,12.526899"
     inkscape:path-effect="#path-effect143" /><ellipse
     style="fill:#800000;fill-opacity:1;stroke:#626074;stroke-width:0.199309;stroke-dasharray:none;stroke-opacity:1"
     id="path133-5"
     cx="44.967258"
     cy="72.122505"
     rx="5.2709613"
     ry="5.5132613" /><path
     style="fill:none;fill-opacity:1;stroke:#011f27;stroke-width:8.68822;stroke-linecap:round;stroke-dasharray:none;stroke-opacity:1"
     d="m 732.31576,9.4798155 c 14.44543,6.0941695 28.89088,12.1883495 38.42717,17.6054325 9.53628,5.417083 14.16322,10.156857 17.9439,14.50181 3.78068,4.344954 6.71487,8.294827 8.8027,13.542645 2.08782,5.247818 3.3292,11.793281 3.27275,18.733931 -0.0565,6.94065 -1.4107,14.27608 -4.06283,20.652432 -2.65212,6.376354 -6.60196,11.793304 -11.5112,16.533254 -4.90925,4.73994 -10.77762,8.80265 -17.04113,12.47046 -6.26352,3.66782 -12.92179,6.94053 -21.16031,9.81837 -8.23852,2.87783 -18.0567,5.36058 -26.97232,6.65841 -8.91562,1.29784 -16.92817,1.41069 -24.15095,1.2414 -7.22278,-0.16929 -13.65538,-0.6207 -19.91889,-1.52355 -6.26351,-0.90285 -12.35756,-2.25708 -17.8875,-3.66778 -5.52994,-1.4107 -10.49546,-2.87779 -16.5897,-5.24777 -6.09424,-2.36999 -13.31681,-5.64272 -20.53952,-8.91552"
     id="path139"
     transform="matrix(0.18039634,0,0,0.2806092,-64.833119,52.818076)"
     inkscape:original-d="m 732.31576,9.4798155 c 14.44543,6.0941675 28.89089,12.1883345 43.33627,18.2825015 4.62719,4.740002 9.25409,9.479816 13.88122,14.219724 2.93422,3.950002 5.86845,7.899846 8.80268,11.849769 1.24139,6.545717 2.4828,13.091174 3.7242,19.636761 -1.35428,7.335717 -2.70855,14.671144 -4.06283,22.006714 -3.94995,5.417145 -7.89982,10.834075 -11.8497,16.251115 -5.8686,4.06286 -11.73697,8.12556 -17.60542,12.18833 -6.65858,3.27287 -13.31685,6.54559 -19.97531,9.81839 -9.81858,2.48286 -19.63676,4.96561 -29.45515,7.44842 -8.01285,0.11286 -16.0254,0.22571 -24.0381,0.33856 -6.43286,-0.45142 -12.86546,-0.90283 -19.29819,-1.35426 -6.09429,-1.35428 -12.18834,-2.70852 -18.28251,-4.06277 -4.96571,-1.46715 -9.93123,-2.93423 -14.89685,-4.40134 -7.22286,-3.27286 -14.44543,-6.54559 -21.66814,-9.81839"
     inkscape:path-effect="#path-effect140" /><path
     style="fill:none;fill-opacity:1;stroke:#09262d;stroke-width:8.68819;stroke-linecap:round;stroke-dasharray:none;stroke-opacity:1"
     d="m 390.70383,125.26899 c 18.73392,-5.86846 37.46784,-11.73691 61.05481,-16.47686 23.58697,-4.73994 52.02585,-8.35123 72.79129,-9.366905 20.76544,-1.015677 33.85635,0.564263 50.67194,3.272825 16.8156,2.70855 37.35478,6.54554 55.7503,7.67408 18.39552,1.12853 34.64631,-0.45141 45.14187,-1.91854 10.49556,-1.46712 15.23537,-2.82135 27.76248,-9.254199 12.5271,-6.432846 32.84059,-17.943818 52.47755,-28.326572 19.63696,-10.382753 38.59621,-19.636675 54.1703,-26.633724 15.57408,-6.99705 27.76218,-11.736869 43.78777,-16.025394 16.02559,-4.288525 35.88769,-8.125521 50.89751,-10.156912 15.00983,-2.031391 25.16655,-2.257096 38.7093,-1.579951 13.54275,0.677144 30.4707,2.257087 47.39888,3.837052"
     id="path134"
     transform="matrix(0.18039634,0,0,0.2806092,-64.833119,52.818076)"
     inkscape:original-d="m 390.70383,125.26899 c 18.73392,-5.86846 37.46784,-11.73691 56.20176,-17.60537 28.44002,-3.61143 56.8789,-7.22272 85.31834,-10.834075 13.09144,1.580003 26.18235,3.159938 39.27353,4.739915 20.54001,3.83714 41.07919,7.67413 61.6188,11.5112 16.25143,-1.58 32.50222,-3.15994 48.75334,-4.73991 4.74,-1.35428 9.47981,-2.70852 14.21972,-4.06277 20.3143,-11.51144 40.62778,-23.022417 60.9417,-34.533622 18.96001,-9.254291 37.91926,-18.508211 56.87888,-27.762317 12.18855,-4.740003 24.37665,-9.479816 36.56498,-14.219724 19.86285,-3.837145 39.72495,-7.674136 59.58742,-11.511204 10.15718,-0.225715 20.3139,-0.45142 30.47085,-0.67713 16.92855,1.580001 33.8565,3.159938 50.78468,4.739907"
     inkscape:path-effect="#path-effect134" /><ellipse
     style="fill:#800000;fill-opacity:1;stroke:#626074;stroke-width:0.199309;stroke-dasharray:none;stroke-opacity:1"
     id="path133-1"
     cx="65.95813"
     cy="81.325882"
     rx="5.2709613"
     ry="5.5132613" /><ellipse
     style="fill:#4f5455;fill-opacity:0.99831218;stroke:#626074;stroke-width:0.199309;stroke-dasharray:none;stroke-opacity:1"
     id="path133-2"
     cx="96.247711"
     cy="59.43787"
     rx="5.2709613"
     ry="5.5132613" /><ellipse
     style="fill:#4f5455;fill-opacity:0.99831218;stroke:#626074;stroke-width:0.199309;stroke-dasharray:none;stroke-opacity:1"
     id="path133"
     cx="23.858671"
     cy="81.841278"
     rx="5.2709613"
     ry="5.5132613" /><ellipse
     style="fill:#800000;fill-opacity:1;stroke:#626074;stroke-width:0.199309;stroke-dasharray:none;stroke-opacity:1"
     id="path133-6"
     cx="73.80584"
     cy="66.888641"
     rx="5.2709613"
     ry="5.5132613" /></svg>
